<?xml version="1.0" encoding="utf-8"?>
<!-- Generator: Adobe Illustrator 18.1.0, SVG Export Plug-In . SVG Version: 6.00 Build 0)  -->
<!DOCTYPE svg PUBLIC "-//W3C//DTD SVG 1.1//EN" "http://www.w3.org/Graphics/SVG/1.1/DTD/svg11.dtd">
<svg version="1.1" id="Logo" xmlns="http://www.w3.org/2000/svg" xmlns:xlink="http://www.w3.org/1999/xlink" x="0px" y="0px"
	 viewBox="0 291.2 217.2 217.5" enable-background="new 0 291.2 217.2 217.5" xml:space="preserve">
<rect id="Base_2_" x="-976" y="-524.8" display="none" fill="#FFFFFF" width="2736.2" height="1849.8"/>
<rect id="Block_12_" y="291.5" fill="#042E57" width="217.3" height="217.3"/>
<rect id="Block_11_" y="400.1" fill="#0C4C82" width="217.3" height="108.6"/>
<rect id="Block_10_" y="400.1" fill="#0C4C82" width="108.6" height="108.6"/>
<rect id="Block_3_" x="108.6" y="400.1" fill="#042E57" width="108.6" height="108.6"/>
<rect id="Block_2_" y="291.5" fill="#4579AC" width="217.3" height="108.6"/>
<rect id="Block_1_" x="108.6" y="291.5" fill="#2664A0" width="108.6" height="108.6"/>
<g id="I_2_">
	<path fill="#FFFFFF" d="M53.2,323.5h4.6v44.6h-4.6V323.5z"/>
</g>
<g id="N_2_">
	<path fill="#FFFFFF" d="M145.5,368.1v-44.6h1l29.6,34.2v-34.2h4.3v44.6h-1l-29.4-33.7v33.7H145.5z"/>
</g>
<g id="C_2_">
	<path fill="#FFFFFF" d="M76.1,440.6l-3.6,2.6c-4.1-5.1-9.4-7.7-15.9-7.7c-5.3,0-9.9,1.9-13.7,5.5c-3.9,3.6-5.8,8.2-5.8,13.7
		c0,5.3,1.9,9.9,5.5,13.5c3.9,3.6,8.4,5.5,14,5.5c6.3,0,11.6-2.4,15.7-7.2l3.4,2.6c-2.2,2.9-5.1,5.1-8.4,6.5
		c-3.4,1.4-7,2.2-11.1,2.2c-7,0-12.8-2.2-17.3-6.7S32,461.1,32,454.3c0-4.3,1-8.2,3.1-11.8c2.2-3.6,5.1-6.3,8.7-8.4
		c3.6-1.9,7.7-3.1,12-3.1s8.2,0.7,11.6,2.4C71.1,435,73.9,437.5,76.1,440.6z"/>
</g>
<g id="A_2_">
	<path fill="#FFFFFF" d="M163.5,430.5l20.7,46.2h-4.8l-7-15.2h-19.3l-7,15.2h-5.1l21-46.2H163.5z M163.1,440.3l-7.7,16.9h15.2
		L163.1,440.3z"/>
</g>
</svg>
