<?xml version="1.0" encoding="utf-8"?>
<!-- Generator: Adobe Illustrator 18.0.0, SVG Export Plug-In . SVG Version: 6.00 Build 0)  -->
<svg version="1.2" baseProfile="tiny" id="Logo" xmlns="http://www.w3.org/2000/svg" xmlns:xlink="http://www.w3.org/1999/xlink"
	 x="0px" y="0px" viewBox="0 0 325.5 90.1" xml:space="preserve">
<rect id="Base_2_" x="-405.2" y="-338.9" display="none" fill="#FFFFFF" width="1136" height="768"/>
<rect id="Block_12_" x="0" y="0" fill="#042E57" width="90.2" height="90.2"/>
<rect id="Block_11_" x="0" y="45.1" fill="#0C4C82" width="90.2" height="45.1"/>
<rect id="Block_10_" x="0" y="45.1" fill="#0C4C82" width="45.1" height="45.1"/>
<rect id="Block_3_" x="45.1" y="45.1" fill="#042E57" width="45.1" height="45.1"/>
<rect id="Block_2_" x="0" y="0" fill="#4579AC" width="90.2" height="45.1"/>
<rect id="Block_1_" x="45.1" y="0" fill="#2664A0" width="45.1" height="45.1"/>
<g id="I_2_">
	<path fill="#FFFFFF" d="M22.1,13.3H24v18.5h-1.9V13.3z"/>
</g>
<g id="N_2_">
	<path fill="#FFFFFF" d="M60.4,31.8V13.3h0.4l12.3,14.2V13.3h1.8v18.5h-0.4l-12.2-14v14H60.4z"/>
</g>
<g id="C_2_">
	<path fill="#FFFFFF" d="M31.6,61.9L30.1,63c-1.7-2.1-3.9-3.2-6.6-3.2c-2.2,0-4.1,0.8-5.7,2.3c-1.6,1.5-2.4,3.4-2.4,5.7
		c0,2.2,0.8,4.1,2.3,5.6c1.6,1.5,3.5,2.3,5.8,2.3c2.6,0,4.8-1,6.5-3l1.4,1.1c-0.9,1.2-2.1,2.1-3.5,2.7c-1.4,0.6-2.9,0.9-4.6,0.9
		c-2.9,0-5.3-0.9-7.2-2.8c-1.9-1.9-2.8-4.2-2.8-7c0-1.8,0.4-3.4,1.3-4.9c0.9-1.5,2.1-2.6,3.6-3.5c1.5-0.8,3.2-1.3,5-1.3
		c1.8,0,3.4,0.3,4.8,1C29.5,59.6,30.7,60.6,31.6,61.9z"/>
</g>
<g id="A_2_">
	<path fill="#FFFFFF" d="M67.9,57.7l8.6,19.2h-2l-2.9-6.3h-8l-2.9,6.3h-2.1l8.7-19.2H67.9z M67.7,61.8l-3.2,7h6.3L67.7,61.8z"/>
</g>
<g id="Type_2_">
	<path fill="#666666" d="M115.5,38.2h-1.7V24.9h1.7V38.2z"/>
	<path fill="#666666" d="M120.8,24.3l10,10.5v-9.8h1.7v13.9l-10-10.5v9.9h-1.7V24.3z"/>
	<path fill="#666666" d="M141.3,38.2h-1.7V26.4h-3.2v-1.5h8v1.5h-3.2V38.2z"/>
	<path fill="#666666" d="M148.6,24.9h7.1v1.5h-5.5v3.7h5.3v1.5h-5.3v5h5.5v1.5h-7.1V24.9z"/>
	<path fill="#666666" d="M168.8,38.2h-2l-3.9-5.6h-0.7v5.6h-1.7V24.9h2c1.2,0,2.5,0,3.5,0.6c1.1,0.7,1.7,1.9,1.7,3.2
		c0,1.9-1.3,3.5-3.2,3.7L168.8,38.2z M162.2,31.2h0.5c1.7,0,3.5-0.3,3.5-2.4c0-2.1-2-2.4-3.6-2.4h-0.4V31.2z"/>
	<path fill="#666666" d="M172.9,24.3l10,10.5v-9.8h1.7v13.9l-10-10.5v9.9h-1.7V24.3z"/>
	<path fill="#666666" d="M191.8,34.9l-1.5,3.3h-1.8l6.4-13.9l6.4,13.9h-1.8l-1.5-3.3H191.8z M194.8,28l-2.4,5.4h4.7L194.8,28z"/>
	<path fill="#666666" d="M207.9,38.2h-1.7V26.4H203v-1.5h8v1.5h-3.2V38.2z"/>
	<path fill="#666666" d="M216.8,38.2h-1.7V24.9h1.7V38.2z"/>
	<path fill="#666666" d="M235.3,31.6c0,4-3.1,6.9-7,6.9c-3.8,0-7-3-7-6.9c0-3.8,3.2-6.9,7-6.9C232.2,24.6,235.3,27.8,235.3,31.6z
		 M233.7,31.6c0-2.9-2.2-5.4-5.3-5.4c-3.1,0-5.3,2.5-5.3,5.4c0,3,2.4,5.4,5.3,5.4C231.2,37,233.7,34.6,233.7,31.6z"/>
	<path fill="#666666" d="M239.9,24.3l10,10.5v-9.8h1.7v13.9l-10-10.5v9.9h-1.7V24.3z"/>
	<path fill="#666666" d="M258.8,34.9l-1.5,3.3h-1.8l6.4-13.9l6.4,13.9h-1.8l-1.5-3.3H258.8z M261.9,28l-2.4,5.4h4.7L261.9,28z"/>
	<path fill="#666666" d="M274,36.7h4v1.5h-5.7V24.9h1.7V36.7z"/>
	<path fill="#666666" d="M113.8,49.4l10,10.5V50h1.7v13.9l-10-10.5v9.9h-1.7V49.4z"/>
	<path fill="#666666" d="M132.7,60l-1.5,3.3h-1.8l6.4-13.9l6.4,13.9h-1.8l-1.5-3.3H132.7z M135.8,53.1l-2.4,5.4h4.7L135.8,53.1z"/>
	<path fill="#666666" d="M148.8,63.4h-1.7V51.6H144V50h8v1.5h-3.2V63.4z"/>
	<path fill="#666666" d="M157.6,50v7.9c0,2.2,0.7,4.2,3.2,4.2c2.6,0,3.2-2,3.2-4.2V50h1.7v8.4c0,2.9-1.8,5.2-4.9,5.2
		c-3.1,0-4.9-2.2-4.9-5.2V50H157.6z"/>
	<path fill="#666666" d="M179.3,63.4h-2l-3.9-5.6h-0.7v5.6H171V50h2c1.2,0,2.5,0,3.5,0.6c1.1,0.7,1.7,1.9,1.7,3.2
		c0,1.9-1.3,3.5-3.2,3.7L179.3,63.4z M172.7,56.3h0.5c1.7,0,3.5-0.3,3.5-2.4c0-2.1-2-2.4-3.6-2.4h-0.4V56.3z"/>
	<path fill="#666666" d="M183.4,50h7.1v1.5h-5.5v3.7h5.3v1.5h-5.3v5h5.5v1.5h-7.1V50z"/>
	<path fill="#666666" d="M211.8,61.6c-1,1.2-2.4,2.1-4,2.1c-2.2,0-4.1-1.6-4.1-3.9c0-1.7,1.1-2.6,2.3-3.5l0.8-0.6
		c-0.8-0.8-1.5-1.8-1.5-2.9c0-1.8,1.3-2.9,3.1-2.9c1.6,0,3.1,1,3.1,2.8c0,1.5-1.3,2.5-2.4,3.3l2.8,3.4l1.6-1.8l1.1,1.1l-1.6,1.9
		l2.4,2.9h-2L211.8,61.6z M207.7,56.9c-0.9,0.6-2.4,1.5-2.4,2.8c0,1.3,1.2,2.5,2.5,2.5c1.2,0,2.2-0.9,3.1-1.8l-2.9-3.6L207.7,56.9z
		 M208.4,54.6c0.7-0.5,1.6-1.1,1.6-2c0-0.9-0.7-1.4-1.6-1.4c-0.8,0-1.5,0.6-1.5,1.4c0,0.7,0.4,1.2,0.8,1.7l0.4,0.6L208.4,54.6z"/>
	<path fill="#666666" d="M237.4,52.6c-1-0.8-2.3-1.3-3.5-1.3c-3,0-5.3,2.5-5.3,5.4c0,2.9,2.3,5.4,5.2,5.4c1.3,0,2.6-0.5,3.5-1.4v2
		c-1,0.6-2.3,0.9-3.5,0.9c-3.8,0-6.9-3-6.9-6.9c0-3.9,3.2-7,7.1-7c1.2,0,2.3,0.3,3.4,0.9V52.6z"/>
	<path fill="#666666" d="M243.4,50v7.9c0,2.2,0.7,4.2,3.2,4.2c2.6,0,3.2-2,3.2-4.2V50h1.7v8.4c0,2.9-1.8,5.2-4.9,5.2
		c-3.1,0-4.9-2.2-4.9-5.2V50H243.4z"/>
	<path fill="#666666" d="M258.4,61.8h4v1.5h-5.7V50h1.7V61.8z"/>
	<path fill="#666666" d="M269.1,63.4h-1.7V51.6h-3.2V50h8v1.5h-3.2V63.4z"/>
	<path fill="#666666" d="M278,50v7.9c0,2.2,0.7,4.2,3.2,4.2c2.6,0,3.2-2,3.2-4.2V50h1.7v8.4c0,2.9-1.8,5.2-4.9,5.2
		c-3.1,0-4.9-2.2-4.9-5.2V50H278z"/>
	<path fill="#666666" d="M299.6,63.4h-2l-3.9-5.6H293v5.6h-1.7V50h2c1.2,0,2.5,0,3.5,0.6c1.1,0.7,1.7,1.9,1.7,3.2
		c0,1.9-1.3,3.5-3.2,3.7L299.6,63.4z M293,56.3h0.5c1.7,0,3.5-0.3,3.5-2.4c0-2.1-2-2.4-3.6-2.4H293V56.3z"/>
	<path fill="#666666" d="M306.3,60l-1.5,3.3H303l6.4-13.9l6.4,13.9H314l-1.5-3.3H306.3z M309.4,53.1l-2.4,5.4h4.7L309.4,53.1z"/>
	<path fill="#666666" d="M321.5,61.8h4v1.5h-5.7V50h1.7V61.8z"/>
	<path fill="#666666" d="M115.7,85.1l-1.5,3.3h-1.8l6.4-13.9l6.4,13.9h-1.8l-1.5-3.3H115.7z M118.8,78.2l-2.4,5.4h4.7L118.8,78.2z"
		/>
	<path fill="#666666" d="M129.1,75.2h2.8c4.1,0,7.5,2.2,7.5,6.6c0,4.5-3.3,6.7-7.5,6.7h-2.7V75.2z M130.8,87h0.6
		c3.4,0,6.3-1.3,6.3-5.1c0-3.9-2.9-5.1-6.3-5.1h-0.6V87z"/>
	<path fill="#666666" d="M147.8,85l4-9.8h1.8l-5.8,14l-5.8-14h1.8L147.8,85z"/>
	<path fill="#666666" d="M157.5,75.2h7.1v1.5h-5.5v3.7h5.3v1.5h-5.3v5h5.5v1.5h-7.1V75.2z"/>
	<path fill="#666666" d="M169.3,74.5l10,10.5v-9.8h1.7V89l-10-10.5v9.9h-1.7V74.5z"/>
	<path fill="#666666" d="M189.8,88.5h-1.7V76.7H185v-1.5h8v1.5h-3.2V88.5z"/>
	<path fill="#666666" d="M198.7,75.2V83c0,2.2,0.7,4.2,3.2,4.2c2.6,0,3.2-2,3.2-4.2v-7.9h1.7v8.4c0,2.9-1.8,5.2-4.9,5.2
		c-3.1,0-4.9-2.2-4.9-5.2v-8.4H198.7z"/>
	<path fill="#666666" d="M220.3,88.5h-2l-3.9-5.6h-0.7v5.6H212V75.2h2c1.2,0,2.5,0,3.5,0.6c1.1,0.7,1.7,1.9,1.7,3.2
		c0,1.9-1.3,3.5-3.2,3.7L220.3,88.5z M213.7,81.5h0.5c1.7,0,3.5-0.3,3.5-2.4c0-2.1-2-2.4-3.6-2.4h-0.4V81.5z"/>
	<path fill="#666666" d="M224.4,75.2h7.1v1.5h-5.5v3.7h5.3v1.5h-5.3v5h5.5v1.5h-7.1V75.2z"/>
	<path fill="#666666" d="M242.1,77.7c-0.5-0.8-1.1-1.3-2.1-1.3c-1.1,0-2.2,0.7-2.2,1.9c0,1,1,1.6,1.9,1.9l1,0.4
		c1.9,0.7,3.3,1.8,3.3,4c0,2.4-1.9,4.1-4.3,4.1c-2.2,0-3.8-1.6-4.1-3.7l1.7-0.4c0,1.5,1.1,2.5,2.6,2.5c1.4,0,2.5-1.2,2.5-2.6
		c0-1.4-1.1-2-2.3-2.5l-0.9-0.4c-1.5-0.7-2.9-1.5-2.9-3.4c0-2.2,1.9-3.4,3.9-3.4c1.5,0,2.7,0.7,3.4,2L242.1,77.7z"/>
</g>
</svg>
