<?xml version="1.0" standalone="no"?>
<!DOCTYPE svg PUBLIC "-//W3C//DTD SVG 1.1//EN" "http://www.w3.org/Graphics/SVG/1.1/DTD/svg11.dtd" >
<svg xmlns="http://www.w3.org/2000/svg">
<metadata>
Created by FontForge 20120731 at Thu Jan 21 21:31:58 2016
 By Ads
</metadata>
<defs>
<font id="iconfont" horiz-adv-x="1024" >
  <font-face 
    font-family="iconfont"
    font-weight="500"
    font-stretch="normal"
    units-per-em="1024"
    panose-1="2 0 6 3 0 0 0 0 0 0"
    ascent="896"
    descent="-128"
    x-height="792"
    bbox="-4 -224 1808 896"
    underline-thickness="50"
    underline-position="-100"
    unicode-range="U+0078-E6C7"
  />
<missing-glyph horiz-adv-x="374" 
d="M34 0v682h272v-682h-272zM68 34h204v614h-204v-614z" />
    <glyph glyph-name=".notdef" horiz-adv-x="374" 
d="M34 0v682h272v-682h-272zM68 34h204v614h-204v-614z" />
    <glyph glyph-name=".null" horiz-adv-x="0" 
 />
    <glyph glyph-name="nonmarkingreturn" horiz-adv-x="341" 
 />
    <glyph glyph-name="x" unicode="x" horiz-adv-x="1001" 
d="M281 543q-27 -1 -53 -1h-83q-18 0 -36.5 -6t-32.5 -18.5t-23 -32t-9 -45.5v-76h912v41q0 16 -0.5 30t-0.5 18q0 13 -5 29t-17 29.5t-31.5 22.5t-49.5 9h-133v-97h-438v97zM955 310v-52q0 -23 0.5 -52t0.5 -58t-10.5 -47.5t-26 -30t-33 -16t-31.5 -4.5q-14 -1 -29.5 -0.5
t-29.5 0.5h-32l-45 128h-439l-44 -128h-29h-34q-20 0 -45 1q-25 0 -41 9.5t-25.5 23t-13.5 29.5t-4 30v167h911zM163 247q-12 0 -21 -8.5t-9 -21.5t9 -21.5t21 -8.5q13 0 22 8.5t9 21.5t-9 21.5t-22 8.5zM316 123q-8 -26 -14 -48q-5 -19 -10.5 -37t-7.5 -25t-3 -15t1 -14.5
t9.5 -10.5t21.5 -4h37h67h81h80h64h36q23 0 34 12t2 38q-5 13 -9.5 30.5t-9.5 34.5q-5 19 -11 39h-368zM336 498v228q0 11 2.5 23t10 21.5t20.5 15.5t34 6h188q31 0 51.5 -14.5t20.5 -52.5v-227h-327z" />
    <glyph glyph-name="uniE600" unicode="&#xe600;" horiz-adv-x="1047" 
d="M625 110q-7 43 -19.5 83t-29.5 79h80q19 -43 32 -83.5t22 -78.5h-85zM-4 -119q94 204 126 454h77q-10 -127 -36.5 -240t-72.5 -214h-94zM104 653q-14 55 -36.5 109t-53.5 111h86q49 -81 89 -220h-85zM108 604q48 -78 91 -220h-86q-28 110 -90 220h85zM432 743
q-62 -66 -198 -108v55q144 66 193 206h94q-9 -28 -20 -51t-24 -43h543v-59h-588zM940 361h102v-62h-102v-211h71v-63h-71v-22q0 -131 -149 -131h-117v54h103q77 0 77 77v22h-377q-153 -5 -149 139v135h-85v62h85v270h612v-270zM854 299h-440v-122q-5 -95 90 -89h350v211z
M854 573h-440v-212h440v212zM616 384q-3 27 -14 66t-31 91h76q40 -68 55 -157h-86z" />
    <glyph glyph-name="uniE601" unicode="&#xe601;" horiz-adv-x="1000" 
d="M955 610q-25 7 -48 -5.5t-30 -37.5l-5 -17h-582l-9 70q-3 24 -21 39.5t-41 15.5h-157q-25 0 -43.5 -18.5t-18.5 -44t18.5 -44t43.5 -18.5h102l55 -445q3 -24 21 -39.5t41 -15.5h531q21 0 38 12.5t23 32.5l125 438q7 25 -5.5 47.5t-37.5 29.5zM500 300v62h125v-62h-125z
M625 238v-63h-125v63h125zM500 425v63h125v-63h-125zM297 488h141v-63h-133zM313 362h125v-62h-117zM329 238h109v-63h-102zM765 175h-77v63h95zM801 300h-113v62h131zM837 425h-149v63h167zM250 -106q0 39 27.5 66.5t66.5 27.5t66.5 -27.5t27.5 -66.5q0 -26 -13 -47.5
t-34.5 -34t-46.5 -12.5q-39 0 -66.5 27.5t-27.5 66.5zM625 -106q0 39 27.5 66.5t66.5 27.5t66 -27.5t27 -66.5q0 -26 -12.5 -47.5t-34 -34t-46.5 -12.5q-39 0 -66.5 27.5t-27.5 66.5z" />
    <glyph glyph-name="uniE602" unicode="&#xe602;" horiz-adv-x="1000" 
d="M125 550v-625h875v625h-875zM938 29l-126 209l-141 -119l-109 181l-375 -312v500h750v-459h1zM250 331q0 39 27.5 66.5t66.5 27.5t66.5 -27.5t27.5 -66.5t-27.5 -66t-66.5 -27t-66.5 27t-27.5 66zM875 675h-875v-625h62v562h813v63z" />
    <glyph glyph-name="uniE603" unicode="&#xe603;" horiz-adv-x="1000" 
d="M701 472q62 0 113 -19t79.5 -45.5t44 -51t15.5 -40.5q0 -5 -4.5 -10.5t-11.5 -12t-13 -11t-14.5 -10t-10.5 -7.5q-67 22 -108 20q-8 0 0 -2q2 -1 5 -1q14 -3 33.5 -11t31.5 -15l12 -6q-13 -2 -33.5 -5t-66 -8.5t-70.5 -5.5q-11 0 -34 2.5t-48 6t-48.5 7t-41 5.5t-21.5 2
q-87 -13 -119 -7q-5 1 -1 2q3 1 7 1q13 1 27.5 5t22.5 7l8 3l-252 44q-13 -1 -56 -44t-69 -73q19 55 23.5 97.5t-1 79.5t-22.5 103q3 -2 68 -88q47 -62 56 -62q4 0 39.5 15t98.5 40t119 44q2 4 4.5 9.5t1.5 20.5t-14 27q-16 15 23 -8q52 -31 50 -31q14 3 36.5 9t70.5 15.5
t70 8.5zM825 406q-3 0 -5 -0.5t-4 -1.5l-4 -4q-2 -1 -3 -3t-2 -4.5t-1 -4.5q0 -8 5.5 -13.5t13.5 -5.5q4 0 7.5 1.5t5.5 4t3.5 6t1.5 7.5q0 5 -2.5 9t-6.5 6.5t-9 2.5z" />
    <glyph glyph-name="uniE604" unicode="&#xe604;" 
d="M293 804h-55v-237h55v237zM677 731h-330v-55h330v55zM969 731h-128v-55h92h18v-18v-146h-878v146v18h18h92v55h-128h-37v-36v-732v-36h37h688h57q23 73 77.5 128t128.5 77v179h-55v-141q-63 -27 -112 -76t-77 -112h-671h-18v18v457h933v238v36h-37zM786 804h-55v-237h55
v237z" />
    <glyph glyph-name="uniE605" unicode="&#xe605;" 
d="M43 178q249 65 400 204q-2 4 -6 10t-10 14l-11 11l-10 10q-147 -98 -326 -151q-21 28 -45 69q216 49 400 180h-270v65h707v-65h-335q-37 -29 -73 -61q57 -58 89 -131q168 82 299 159l49 -65q-94 -49 -192 -98q73 -196 298 -270q-33 -28 -62 -69q-220 90 -302 310
q-8 -4 -28 -16q-11 -4 -19 -8t-14 -8q24 -70 24 -147q9 -197 -183 -192q-58 -5 -98 -5l-9 42q-5 28 -8 40q25 -4 115 -4q114 -8 110 119q0 36 -8 73q-155 -155 -449 -253q-13 28 -41 73q294 78 469 254q-12 32 -28 57q-155 -139 -392 -213q-17 29 -41 66zM455 864l74 25
q4 -8 10 -21l14 -32q21 -45 29 -70l-45 -12h433v-167h-74v98h-759v-98h-73v167h440q-24 69 -49 110z" />
    <glyph glyph-name="uniE606" unicode="&#xe606;" 
d="M512 -212q104 0 199 40.5t163.5 109t109.5 163.5t41 199t-41 199t-109.5 163.5t-163.5 109t-199 40.5q-212 0 -362 -150t-150 -362q0 -104 40.5 -199t109 -163.5t163.5 -109t199 -40.5zM516.5 660q99.5 0 184 -49t133.5 -133.5t49 -184.5t-49 -184.5t-133.5 -133.5
t-184 -49t-184 49t-134 133.5t-49.5 184.5t49.5 184.5t134 133.5t184 49zM470 214h256q17 0 29.5 12.5t12.5 30.5t-12.5 30.5t-29.5 12.5h-214v213q0 12 -5.5 21.5t-15.5 15.5t-21 6q-18 0 -30.5 -12.5t-12.5 -30.5v-256q0 -12 5.5 -21.5t15.5 -15.5t22 -6z" />
    <glyph glyph-name="uniE607" unicode="&#xe607;" 
d="M769 366q-17 0 -32.5 -9t-24 -24t-8.5 -33q0 -13 5 -25.5t14 -21.5t21 -14t25 -5q28 0 47 19.5t19 46.5t-19 46.5t-47 19.5zM253 366q-18 0 -33.5 -9t-24 -24t-8.5 -33q0 -27 19 -46.5t47 -19.5q18 0 33 9t24 24t9 33q0 13 -5.5 25.5t-14 21.5t-21 14t-25.5 5zM63 546
v-492h897v492h-897zM925 157q0 -5 -4 -8l-4 -2q-2 -1 -5 -1q0 1 -1 1h-5q-18 0 -31 -13t-13 -31q0 -2 -0.5 -5t-2.5 -4q-5 -5 -8 -5h-680q-5 0 -8 3t-3 8v1v3q0 19 -15 32t-33 11q-6 -1 -10 2q-4 5 -4 8v286q0 5 4 8t8 2q19 -2 34.5 11t15.5 33q0 6 3 9q5 5 8 5h680l8 -3
q2 -2 2.5 -4t0.5 -4v-4q0 -12 7 -23t18.5 -16t24.5 -4q2 1 4.5 0.5t4.5 -2.5q4 -3 4 -8v-286zM515 461q-65 0 -111.5 -46.5t-46.5 -112t46.5 -112t112 -46.5t112 46.5t46.5 112t-46.5 112t-112.5 46.5zM442 408q13 -5 23.5 -9.5t18.5 -10.5l-23 -26q-15 15 -33 27zM494 266
q-7 9 -18 18v-79l-34 -4v72q-8 -6 -17 -11l-9 11q6 6 11.5 13t10.5 13.5t9.5 13.5t8 14.5t7.5 15.5h-40l-4 16h46l19 12l25 -21l-10 -8q-2 -3 -3.5 -6.5t-3.5 -7t-4 -6.5l-4 -6q-2 -3 -4 -5q21 -10 34 -20zM595 203h-51q-19 0 -21 22v181l34 -5v-158q0 -7 5 -7h20q7 0 8 7
l5 21l16 -4q0 -2 -0.5 -3.5t-0.5 -2.5v-4v-3q0 -15 12 -25q-4 -10 -10.5 -14.5t-16.5 -4.5z" />
    <glyph glyph-name="uniE608" unicode="&#xe608;" 
d="M960 706l-80 70l-17 -8q-49 -24 -99 -34t-86 -8t-71.5 11t-51.5 16t-29 14l-14 8l-14 -8q-12 -7 -28.5 -14t-51.5 -16t-71 -11t-86.5 8t-98.5 34l-17 8l-80 -70l9 -20q7 -13 14 -29.5t17 -42t16 -53.5t6 -51q0 -14 -12 -71q-7 -39 -11 -61.5t-8.5 -60.5t-4.5 -69
q0 -201 159 -256q77 -26 131.5 -54.5t75 -46t32.5 -33.5l23 -35l24 35q48 69 238 134q159 55 159 256q0 19 -1.5 41.5t-3.5 39.5t-6 40.5t-6.5 35.5t-6.5 34v0l-6 30q-2 10 -3.5 22.5t-1.5 18.5q0 71 52 176zM350 72zM241 392v44q79 51 100 181h70q-4 -15 -7.5 -29.5
t-7.5 -27.5t-8.5 -25.5t-9 -23.5t-9.5 -22v-402h-70v333q-14 -12 -53 -26q1 0 -1 -1t-4 -1zM431 406v195h319v-114q2 -84 -81 -81h-45v-52h163v-48h-74q11 -89 72 -147v-44q-123 56 -135 191h-26v-219h-72v219h-25q-12 -138 -135 -191v44q63 58 72 147h-74v48h162v52h-121z
M501 454h147q17 -1 25 8.5t7 29.5v60h-179v-98z" />
    <glyph glyph-name="uniE609" unicode="&#xe609;" 
d="M841 748h-657q-7 0 -12.5 -0.5t-18.5 -3t-23.5 -6.5t-23.5 -13t-21.5 -21t-14.5 -31.5t-6 -44.5v-657q0 -33 13 -58t29 -36t36.5 -17.5t28.5 -7t13 -0.5h657q91 0 114 85q5 19 5 34v657q0 29 -7 50.5t-20 34t-25.5 20.5t-28.5 10.5t-23 3.5t-15 1zM901 -29l-5 -24
q-15 -35 -55 -36l-225 235l-123 -107l-185 171l-184 -171v589q0 21 6.5 34.5t18 18.5t18.5 6t17 1h657q10 0 17 -1t18.5 -6t18 -18.5t6.5 -34.5v-657zM662 509q-33 0 -60.5 -16t-43.5 -43.5t-16 -60.5q0 -49 35 -84.5t85 -35.5q24 0 46 9.5t38 26t25.5 38.5t9.5 46
q0 50 -35 85t-84 35z" />
    <glyph glyph-name="uniE60A" unicode="&#xe60a;" 
d="M549 666q0 15 -11 25.5t-26 10.5t-26 -10.5t-11 -25.5t11 -26t26 -11t26 11t11 26zM1024 135v-201q0 -12 -11 -17q-5 -1 -7 -1q-8 0 -13 5l-54 53q-68 -81 -182 -129t-245 -48t-245 48t-182 129l-54 -53q-5 -5 -13 -5q-2 0 -7 1q-11 5 -11 17v201q0 8 5 13.5t13 5.5h201
q13 0 18 -12q4 -11 -4 -20l-58 -57q39 -52 109 -87.5t155 -47.5v370h-110q-15 0 -26 11t-10 26v73q0 15 10.5 25.5t25.5 10.5h110v93q-33 20 -53 53.5t-20 73.5q0 60 42.5 103t103.5 43t103.5 -43t42.5 -103q0 -40 -20 -73.5t-53 -53.5v-93h110q15 0 25.5 -10.5t10.5 -25.5
v-73q0 -15 -10.5 -26t-25.5 -11h-110v-370q85 12 155 47.5t108 87.5l-57 57q-8 9 -4 20q5 12 17 12h202q8 0 13 -5.5t5 -13.5z" />
    <glyph glyph-name="uniE60B" unicode="&#xe60b;" 
d="M24 207l64 70v-25q0 -89 35 -174.5t93 -149t136.5 -102t159.5 -38.5t159.5 38.5t136.5 102t93 149t35 174.5v25l65 -71q5 -4 10 -5q6 0 11 5q2 3 3 7t0 8.5t-3 7.5l-89 96q-2 3 -5 5t-6 2q-1 0 -3 -1h-1q-2 0 -3 -0.5t-2 -1.5l-2 -2l-89 -97q-2 -2 -3.5 -5t-1.5 -6
t1.5 -6t3.5 -6q10 -11 20 0l65 71v-26q0 -108 -53 -206.5t-141 -159t-186 -65.5v607h248q6 0 10.5 4.5t4.5 11.5q0 4 -2 8t-5.5 6t-7.5 2h-248v130q37 6 62 37t25 73q0 46 -30 79t-72 33t-72 -33t-30 -79q0 -42 25 -73t62 -37v-130h-248q-3 0 -6 -1.5t-5 -3.5t-3 -5t-1 -6
q0 -16 15 -16h248v-607q-98 5 -186 65.5t-141 159t-53 206.5v25l65 -71q5 -4 11 -5q6 0 10 5q3 3 4 7t0 8.5t-4 7.5l-90 98q-4 5 -11 5q-6 -1 -10 -5l-89 -97q-3 -3 -4 -7t0 -8.5t4 -7.5q10 -9 21 0zM512 780q30 0 51.5 -23.5t21.5 -56.5t-21.5 -56.5t-51.5 -23.5
t-51.5 23.5t-21.5 56.5t21.5 56.5t51.5 23.5z" />
    <glyph glyph-name="uniE60C" unicode="&#xe60c;" 
d="M646 406q-13 -2 -19.5 -9.5t-3.5 -15.5h-1q14 -39 14 -80q0 -40 -14 -80q-3 -9 4 -16.5t20 -9.5h7t13.5 2t11 5.5t6.5 8.5q15 44 15 90q0 11 -1 22.5t-3 22.5t-4.5 22t-6.5 22q-3 9 -14 13.5t-24 2.5zM872 587q-5 8 -17.5 11t-24 -1t-16 -12t0.5 -16q30 -43 50 -87.5
t29.5 -89.5t9.5 -91q0 -141 -89 -268q-5 -8 -0.5 -16t16.5 -12q6 -2 13 -2q20 0 28 12q96 136 96 286t-96 286zM789 471q-4 9 -15.5 12.5t-24 1t-18 -10.5t-1.5 -17q39 -75 39 -156t-40 -157q-2 -6 -0.5 -11t7 -9.5t13.5 -6.5q5 -1 10 -1q23 0 30 14q43 84 43 171
q0 44 -11 87t-32 83zM500 638q-51 -32 -224 -183h-194q-9 0 -16 -6.5t-7 -16.5v-269q0 -6 3 -11.5t8.5 -8.5t11.5 -3h198q169 -146 220 -179q16 -10 28 -11t18.5 4t10.5 12.5t5 12.5t1 7v307v14v307q0 2 -1 6t-5.5 12.5t-10.5 13t-18 3.5t-28 -11z" />
    <glyph glyph-name="uniE60D" unicode="&#xe60d;" 
d="M209 343l-2 5l-1 7l-1 4v4v6v4l2 6l1 6l3 7l2 7l4 8l5 7v5l1 5l1 7l2 7l2 9l2 3l2 4l2 4l3 2v6v6v7l1 10l2 11l3 13l4 14l2 7l3 9l3 7l4 8l4 10l4 8l5 9l6 9l3 5l3 4l7 10l7 10l7 9l9 10l9 9l9 10l11 10l8 7l8 6l9 7l10 5l9 5l11 5l11 5l11 4l11 3l12 4l11 3l13 2l13 2
l12 2l13 2h13h12h14h13l13 -1l13 -2l14 -1l12 -3l13 -3l13 -3l13 -4l13 -4l12 -5l12 -6l12 -5l11 -7l11 -7l9 -6l5 -4l4 -3l9 -7l8 -8l7 -7l7 -8l6 -8l7 -8l5 -9l5 -8l6 -9l4 -8l7 -17l4 -9l3 -8l3 -9l2 -8l2 -7l2 -9l4 -15l3 -13l2 -12l1 -10l2 -16l1 -2l2 -3l5 -8l3 -5
l2 -6l4 -6l3 -7l2 -8l2 -8l2 -8l1 -4l1 -6v-4l-1 -4v-6l-1 -5l-3 -10l-2 -5l-2 -6v-2v-1l3 -5l12 -17l9 -13l4 -8l6 -10l5 -10l6 -11l6 -12l7 -14l4 -9l3 -8l3 -9l3 -8l2 -9l3 -8l2 -15l3 -16l1 -14v-7v-6v-6l-1 -7l-1 -12l-2 -11l-4 -10l-1 -4l-2 -4l-2 -4l-2 -4l-3 -2
l-2 -4l-3 -3l-2 -2l-4 -1l-3 -2h-2h-2h-1h-3l-4 3l-2 1l-2 1l-3 3l-2 2l-4 4l-4 6l-4 6l-3 5l-4 6l-5 10l-5 11l-1 1h-1l-2 -2l-2 -3l-2 -3l-3 -11l-6 -15l-7 -17l-6 -9l-6 -10l-7 -10l-7 -10l-3 -5l-5 -5l-10 -10l1 -1l1 -1l5 -3l22 -11l9 -5l9 -5l9 -7l8 -6l4 -3l2 -4
l3 -4l3 -4l1 -4l2 -4v-4l1 -4l-1 -3v-3v-3l-2 -3v-2l-2 -3l-4 -5l-3 -5l-3 -3l-3 -2l-5 -5l-7 -3l-7 -4l-8 -3l-9 -4l-4 -1l-4 -1l-10 -3l-10 -2l-11 -2l-11 -2h-12l-11 -2h-12h-13h-12l-14 1l-12 1l-13 2l-13 1l-14 2l-14 4l-13 2l-13 4l-14 5l-13 4l-7 2l-6 2l-4 2l-4 1
h-5h-6l-12 1h-7l-8 1l-5 -5l-7 -4l-10 -5l-11 -6l-7 -3l-6 -3l-16 -6l-8 -2l-8 -2l-12 -3h-8l-8 -1l-8 -1h-10h-9h-10h-20h-22l-22 2l-11 2l-11 2l-10 1l-10 2l-10 3l-9 2l-9 4l-8 3l-8 4l-6 4l-7 4l-2 3l-3 3l-2 2l-2 3l-2 3l-1 3l-2 6l-1 3l-1 3v3l1 4v4l1 3v2v5v4l2 5
l1 4l3 5l2 2l1 3l4 5l3 2l4 2l2 2l5 2l3 2l5 2l5 2l5 2l6 1l6 1h7l7 1l2 1h1v1l-1 2l-4 2l-10 8l-6 5l-8 7l-7 7l-8 10l-9 10l-4 6l-4 6l-4 7l-3 7l-5 7l-3 8l-4 9l-3 9l-3 8l-2 11h-1h-1v1h-1l-2 -1h-1l-1 -2v-2l-1 -2l-1 -3l-5 -8l-2 -5l-4 -4l-3 -5l-5 -6l-4 -4l-5 -5
l-5 -5l-6 -3l-6 -4l-5 -2l-7 -2h-7h-1h-2l-1 3l-2 1l-2 6l-2 4l-2 4l-1 5l-1 5l-2 11l-1 7v7v15l1 16l1 8l2 9l1 9l3 8l3 10l3 10l3 9l4 10l5 9l5 11l5 9l7 11l7 9l7 10l6 8l7 8l8 8l4 4l5 5l6 6l7 5l11 10l8 6z" />
    <glyph glyph-name="uniE60E" unicode="&#xe60e;" 
d="M175 195q9 0 20 2q-6 18 -10.5 35.5t-7 36.5t-2.5 38q0 15 1.5 29t4 28t6 27t8.5 27h-1q35 100 122 163t196 63t196 -63t122 -163h-1q10 -28 15 -55.5t5 -55.5q0 -53 -20 -110q5 -1 10 -1.5t10 -0.5q47 0 79.5 33t32.5 79q0 35 -19.5 63.5t-50.5 40.5q-23 83 -77.5 149
t-133.5 103t-168 37q-134 0 -239 -81t-140 -208q-15 -6 -28 -16.5t-22.5 -23.5t-14.5 -29.5t-5 -34.5q0 -30 15 -56t40.5 -41t56.5 -15zM793 139q0 2 2 23v145h-2q0 117 -82.5 199t-198.5 82q-57 0 -109 -22t-89.5 -60t-60 -90t-22.5 -109v-145q2 -21 2 -23q0 -85 -47 -155
t-122 -103q53 -23 111 -23q99 0 178 66q65 -66 159 -66q95 0 160 66q79 -66 179 -66q29 0 57 6t54 17q-76 33 -122.5 103t-46.5 155zM691 81q-29 -30 -69 -44q-3 19 -18.5 32.5t-35.5 13.5q-23 0 -39.5 -16.5t-16.5 -40t16.5 -40t39.5 -16.5q31 0 65 11q-55 -67 -121 -67
q-119 1 -189 192q-28 76 -38 147q9 3 23 9.5t51 25.5t66.5 38t56.5 45.5t34 49.5l-16 -76q-22 -81 -48 -91q6 2 17 6t38.5 16.5t50 25.5t42.5 31.5t24 35.5q1 -5 2 -13t8.5 -29t18.5 -36.5t33.5 -27t51.5 -9.5q-12 -88 -47 -173zM400 251q-16 0 -28.5 -7.5t-20 -20.5
t-7.5 -28h112q0 8 -2 15t-5.5 13.5t-9 11.5t-11.5 8.5t-13.5 5.5t-14.5 2zM624 251q-15 0 -28 -7.5t-20.5 -20.5t-7.5 -28h113q0 11 -4.5 21.5t-12 18t-18 12t-22.5 4.5z" />
    <glyph glyph-name="uniE60F" unicode="&#xe60f;" 
d="M811 256h-194v-57h194v57zM811 362h-194v-57h194v57zM811 468h-194v-57h194v57zM348 160q63 0 107.5 44t44.5 106h-152v-150zM306 201v150h151q0 62 -44 106t-107 44t-107 -44t-44 -106q0 -41 20 -75.5t55 -54.5t76 -20zM899 71h-784v505h784v-505zM533 725v84h-59v-84
h-468v-149h51v-563h358l-218 -177l37 -45l273 222h2l273 -222l37 45l-218 177h357v563h62v149h-487z" />
    <glyph glyph-name="uniE610" unicode="&#xe610;" 
d="M512 812q-104 0 -199 -40.5t-163.5 -109t-109 -163.5t-40.5 -199q0 -83 26 -161.5t73 -141.5t110 -110t141.5 -73t161.5 -26q104 0 199 40.5t163.5 109t109 163.5t40.5 199q0 52 -10.5 103t-29.5 96.5t-47.5 87t-62.5 75.5t-75.5 62.5t-87 47.5t-96.5 29.5t-103 10.5z
M512 -165q-95 0 -181 36.5t-148.5 99t-99 148.5t-36.5 181q0 63 16.5 123.5t46.5 111.5t73 94t94 73t111.5 46.5t123.5 16.5q95 0 181 -36.5t148.5 -99t99 -148.5t36.5 -181t-36.5 -181t-99 -148.5t-148.5 -99t-181 -36.5zM768 300h-233v303q0 9 -6.5 16t-16.5 7
q-6 0 -11.5 -3t-8.5 -8.5t-3 -11.5v-326q0 -10 6.5 -17t16.5 -7h256q10 0 16.5 7t6.5 16.5t-6.5 16.5t-16.5 7z" />
    <glyph glyph-name="uniE611" unicode="&#xe611;" 
d="M510 681q-119 0 -203.5 -82.5t-84.5 -199.5t84.5 -199.5t204 -82.5t203.5 82.5t84 199.5q0 58 -22.5 110t-61 90t-92 60t-112.5 22zM177 291v260h-10q29 64 80.5 113t119.5 77t143 28t143.5 -28t119.5 -77t81 -113h-6h-5v-260q36 0 67 17.5t48.5 47.5t17.5 65
q0 36 -18.5 66.5t-49.5 47.5q-29 80 -87 143t-139 98.5t-172 35.5q-136 0 -245 -77t-152 -200q-32 -17 -50.5 -47.5t-18.5 -66.5q0 -54 39 -92t94 -38zM798 141q-58 -52 -132 -81.5t-156 -29.5t-155.5 29t-131.5 82q-104 -53 -163.5 -143t-59.5 -210h1024q0 120 -60.5 210.5
t-165.5 142.5z" />
    <glyph glyph-name="uniE612" unicode="&#xe612;" 
d="M921 509h-222v104q0 58 -40 97.5t-100 39.5h-88q-60 0 -103 -40.5t-43 -96.5v-104h-216q-18 0 -34 -9t-25.5 -24.5t-9.5 -32.5v-527q0 -27 20.5 -46.5t48.5 -19.5h812q18 0 32.5 9t22.5 24t8 33v527q0 27 -18 46.5t-45 19.5zM369 613q0 39 29.5 66t72.5 27h88
q27 0 49 -12t34.5 -33.5t12.5 -47.5v-104h-286v104zM940 -84q0 -10 -5 -16t-14 -6h-812q-9 0 -17 6.5t-8 15.5v527q0 8 8 15t17 7h809h3q9 0 14 -6.5t5 -15.5v-527z" />
    <glyph glyph-name="uniE613" unicode="&#xe613;" 
d="M266 246q0 11 -4.5 18t-11.5 7q-3 0 -6 -2t-5 -5t-3 -8t-1 -10q0 -11 5 -19l1 -2l-10 -83l19 -15l19 15l-11 83q8 8 8 21zM258 279q5 -4 8.5 -11t5.5 -13.5t3 -12.5t1 -10v-4l19 68q-15 -16 -37 -17zM241 279q-5 0 -9.5 1t-8 2.5t-7 3.5t-5.5 4l-4 2l-3 3v1l19 -68
q0 4 0.5 10.5t5 20t12.5 20.5zM776 500h-642q-28 0 -48 -20t-20 -49v-376q0 -28 20 -48t48 -20h642q29 0 49 20t20 48v376q0 29 -20 49t-49 20zM521 411h172q3 0 3 -14q0 -3 -0.5 -5.5t-0.5 -4.5t-1 -3l-1 -1h-172q-3 0 -3 14t3 14zM250 431q24 0 41.5 -17.5t17.5 -42.5
q0 -16 -8 -30t-21.5 -22t-29.5 -8q-25 0 -42.5 17.5t-17.5 42.5q0 37 33 54q13 5 27 6zM250 112q-20 0 -42 -10t-36.5 -20t-27.5 -15t-19.5 6.5t-6.5 43.5q0 65 24 117t62 73q10 -7 21.5 -11.5t24.5 -4.5q25 0 45 16q38 -21 62 -73t24 -117q0 -20 -3 -31.5t-6.5 -16.5
t-12.5 -3t-15 5.5t-19 11.5q-47 29 -75 29zM780 78h-346q-7 0 -7 10q0 2 0.5 4t1.5 3l2 2q1 1 3 1h346q7 0 7 -10t-7 -10zM780 118h-346q-7 0 -7 10q0 3 1 5t2.5 3.5t3.5 1.5h346q2 0 3.5 -1.5t2.5 -3.5t1 -5q0 -10 -7 -10zM780 158h-346q-7 0 -7 10q0 5 2 7.5t5 2.5h346
q7 0 7 -10t-7 -10zM780 238h-346q-7 0 -7 10q0 2 1 4.5t2.5 4t3.5 1.5h346q2 0 3.5 -1.5t2.5 -4t1 -4.5q0 -10 -7 -10zM780 278h-346q-7 0 -7 10q0 4 2 7t5 3h346q7 0 7 -10t-7 -10zM900 101q1 6 1 11v376q0 18 -9 34t-25 25t-34 9h-642q-5 0 -11 -1q3 17 12.5 30t24 20.5
t31.5 7.5h642q18 0 34 -9t25 -25t9 -34v-376q0 -26 -16.5 -45t-41.5 -23z" />
    <glyph glyph-name="uniE614" unicode="&#xe614;" 
d="M742 -32q13 -10 18.5 -7t9.5 18l-31 106h156q33 0 56 22.5t23 53.5v450q0 32 -23 54.5t-56 22.5h-766q-16 0 -30.5 -6t-25 -16.5t-17 -24.5t-6.5 -30v-450q0 -31 23 -53.5t56 -22.5h456zM237 382q0 25 18 43t44 18q10 0 19.5 -3t17.5 -8.5t13.5 -13t9 -17t3.5 -19.5
q0 -17 -8.5 -31t-23 -22t-31.5 -8q-26 0 -44 18t-18 43zM462 382q0 25 18 43t44 18t44.5 -18t18.5 -43t-18.5 -43t-44.5 -18t-44 18t-18 43zM687 382q0 25 18 43t44 18q13 0 24.5 -5t20 -13t13.5 -19.5t5 -23.5q0 -25 -18.5 -43t-44.5 -18t-44 18t-18 43z" />
    <glyph glyph-name="uniE615" unicode="&#xe615;" 
d="M786 487h-413v-75h413v75zM316 487h-81v-75h81v75zM191 -148h78v112h482v-112h80v187h-640v-187zM786 375h-413v-75h413v75zM316 263h-81v-75h81v75zM579 674v74h-137v-74h-379v-101h63v-497h772v497h60v101h-379zM855 113h-689v460h689v-460zM316 375h-81v-75h81v75z
M786 263h-413v-75h413v75zM786 263z" />
    <glyph glyph-name="uniE616" unicode="&#xe616;" 
d="M911 322h-788q-14 0 -25.5 7t-18.5 18.5t-7 25.5v151q0 21 15 36t36 15h788q10 0 19.5 -4t16.5 -11t11 -16.5t4 -19.5v-151q0 -21 -15 -36t-36 -15zM123 534q-2 0 -4 -1t-3.5 -2t-2.5 -3t-1 -4v-151q0 -4 3.5 -7t7.5 -3h788q3 0 5 1.5t3.5 4t1.5 4.5v151q0 4 -3 7t-7 3
h-788zM801 -192h-568q-27 0 -49.5 13t-35.5 35.5t-13 48.5v437q0 5 1.5 8.5t4.5 6.5t6.5 4.5t8.5 1.5t9.5 -3t7.5 -7.5t3 -10.5v-437q0 -23 16.5 -40t40.5 -17h568q23 0 40 17t17 40v437q0 6 2.5 10.5t7.5 7.5t10.5 3t10 -3t7.5 -7.5t3 -10.5v-437q0 -26 -13.5 -48.5
t-36 -35.5t-48.5 -13zM516.5 -192q-8.5 0 -14 6t-5.5 14v514q0 5 1.5 8.5t4 6.5t6.5 4.5t8 1.5q5 0 10 -3t7.5 -7.5t2.5 -10.5v-514q0 -8 -6 -14t-14.5 -6zM277 534q-46 25 -60.5 74.5t10 95t74 60.5t95.5 -10q26 -14 50 -39t39.5 -48.5t29 -50.5t18 -38t6.5 -18l-38 -14
q-2 5 -5.5 15t-16 34t-26 45.5t-34.5 44t-43 34.5q-30 16 -63.5 6t-50.5 -40q-8 -16 -9.5 -32.5t3 -32t15 -29t25.5 -21.5zM757 534l-19 36q31 17 41 50.5t-7 64t-50.5 40.5t-64.5 -6q-22 -12 -43 -34.5t-34.5 -44t-25.5 -45.5t-16 -34t-5 -15l-39 14q2 5 5.5 13.5t12.5 28
t21 39.5t27 41.5t35.5 41t42.5 30.5q46 25 95.5 10t74.5 -60q12 -22 14.5 -46.5t-5.5 -48.5q-4 -16 -12.5 -30t-20.5 -25.5t-27 -19.5zM878 65h-722q-9 0 -15 6t-6 14.5t6 14.5t15 6h722q9 0 15 -6t6 -15q0 -5 -3 -10t-7.5 -7.5t-10.5 -2.5z" />
    <glyph glyph-name="uniE617" unicode="&#xe617;" 
d="M64 749h445v-897h-445v897zM116 527h114v113h-17h-17h-17h-17h-17q-9 0 -17 -1q-3 0 -7 -5t-4 -9q-1 -16 -1 -98zM344 525h99q2 1 5.5 3.5t5.5 6t3 6.5q2 44 -1 82q0 4 -5.5 10t-9.5 6q-15 1 -97 1v-115zM232 76q0 81 -1 95q0 2 -1.5 4.5t-3.5 4.5t-4.5 3.5t-4.5 3
t-4 1.5q-34 2 -79 0q-5 0 -11 -4.5t-6 -7.5q-1 -18 -1 -100h116zM345 189v-112h112q0 80 -1 95q0 1 -1 3.5t-2.5 4.5t-4 4t-4.5 3t-4 1q-14 1 -95 1zM230 414q-83 0 -102 -1q-3 0 -7 -4.5t-4 -7.5q-1 -18 -1 -99h114v38v34v40zM457 414h-25h-27h-23q-13 0 -25 -1
q-3 0 -8 -3.5t-5 -5.5q-1 -21 -1 -104q82 0 95 1q5 0 11.5 5.5t6.5 10.5q1 14 1 97zM679 74v-222h-106v500h387v-500h-107v222h-174zM571 416v50h389v-50h-389z" />
    <glyph glyph-name="uniE618" unicode="&#xe618;" 
d="M346 241h332q-72 43 -127 118h-59q-48 -69 -146 -118zM942 748h-860q-8 0 -13 -5t-5 -13v-860q0 -4 1.5 -7t4 -5.5t5.5 -4t7 -1.5h860q8 0 13 5t5 13v860q0 5 -2.5 9t-6.5 6.5t-9 2.5zM883 359h-215q72 -88 215 -134v-65q-39 10 -104 33q-19 6 -29 9v-156
q3 -111 -111 -108h-98v69h56q26 -2 38 8.5t11 33.5v124h-186q16 -205 -297 -251v62q209 46 193 186v3h-92v29q-26 -13 -87 -32q-12 -5 -21 -8.5t-15 -4.5v68q159 59 228 134h-228v65h273q13 29 23 68h-264v65h91q-6 15 -13.5 38.5t-15.5 56.5h98q10 -53 26 -95h91v56v65h111
v-56q0 -17 -1 -33.5t-2 -31.5h101q9 21 15.5 45t10.5 50h94q-10 -59 -29 -95h101v-65h-300q-10 -39 -23 -68h355v-65z" />
    <glyph glyph-name="uniE619" unicode="&#xe619;" 
d="M254 487l-254 118v-782q0 -19 14.5 -33t34.5 -14h926q20 0 34.5 14t14.5 33v782l-254 -118q-107 -50 -258 -50t-258 50zM983 -148q0 -17 -13 -29t-32 -12h-852q-19 0 -32 12t-13 29v685l233 -103q99 -44 238 -44t238 44l233 103v-685zM975 800h-926q-20 0 -34.5 -14
t-14.5 -33v-84l254 -118q107 -50 258 -50t258 50l254 118v84q0 13 -6.5 23.5t-18 17t-24.5 6.5zM983 693l-233 -108q-99 -35 -238 -35t-238 35l-233 108v32q0 14 13 23.5t32 9.5h852q19 0 32 -9.5t13 -23.5v-32zM692 331h-72l-80 -110q-3 -4 -13 -17h-27q-3 5 -6 9t-4 6
l-84 112h-68l98 -127h-149v-52h191v-52h-191v-52h191v-142h55v142h204v52h-204v52h204v52h-145z" />
    <glyph glyph-name="uniE61A" unicode="&#xe61a;" 
d="M686 515q-12 4 -36 14q-43 16 -65 24.5t-62.5 23.5t-65 23t-63 19.5t-66 17.5t-63.5 12.5t-66 8.5t-64 1.5t-66 -3.5q5 -27 22 -57.5t36.5 -56.5t37.5 -52.5t28 -54.5t6 -54q-2 -12 -8 -18.5t-13 -9t-14 -6.5t-11.5 -15t-5.5 -31h316q13 37 36.5 68t54.5 53.5t69 35
t79 12.5q65 0 120.5 -30.5t90.5 -82.5l21 73q-92 24 -248 85zM268 495q-14 0 -24.5 10t-10.5 24q0 9 5 17t13 12.5t17 4.5q15 0 25 -10t10 -24q0 -7 -3 -13t-7.5 -11t-11 -7.5t-13.5 -2.5zM333 690h154l-42 -44q71 -22 261 -95q30 -12 54.5 -21t54 -20t56.5 -19v47l-66 31
v59l-216 116h-179l-19 -33h-70l-20 -16l12 -4zM897 249h-20q-4 0 -8.5 2t-8 5.5t-4.5 8.5l-11 27q-3 6 -2 13.5t6 12.5l14 13q2 3 3 6t1 6t-1 6t-3 5l-23 23q-12 12 -23 0l-14 -13q-12 -12 -26 -4l-27 11q-3 1 -6 3t-5 5t-3.5 6.5t-1.5 6.5v19q0 7 -4.5 12t-11.5 5h-32
q-7 0 -12 -5t-5 -12v-19q0 -4 -2 -8.5t-5.5 -8t-7.5 -4.5l-27 -11q-4 -2 -9 -2.5t-9.5 1t-7.5 5.5l-14 13q-2 3 -5 4t-6 1t-6.5 -1t-5.5 -4l-23 -23q-3 -3 -4 -7t0 -8t4 -8l14 -13q5 -5 6 -12.5t-2 -13.5l-11 -27q-2 -7 -8.5 -11.5t-12.5 -4.5h-20q-4 0 -8 -2t-6 -6t-2 -8
v-33q0 -4 2 -7.5t6 -6t8 -2.5h20q6 0 12.5 -4.5t8.5 -10.5l11 -28q7 -14 -4 -25l-14 -14q-11 -12 0 -23l23 -23q5 -5 11.5 -5t11.5 5l14 14q5 4 12.5 5.5t13.5 -1.5l27 -12q6 -2 10.5 -8t4.5 -13v-19q0 -7 5 -11.5t12 -4.5h32q7 0 11.5 4.5t4.5 11.5v19q0 7 4.5 13t11.5 8
l27 12q14 7 26 -4l14 -14q11 -11 23 0l23 23q11 11 0 23l-14 14q-12 11 -4 25l11 28q1 3 3 6t5 5t6.5 3t6.5 1h20q4 0 8 2.5t6 6t2 7.5v33q0 7 -5 11.5t-11 4.5zM702 136q-34 0 -57.5 23.5t-23.5 57.5q0 16 6.5 31t17 26t25.5 17.5t32 6.5q34 0 57.5 -24t23.5 -57
q0 -22 -11 -41t-29.5 -29.5t-40.5 -10.5z" />
    <glyph glyph-name="uniE61B" unicode="&#xe61b;" 
d="M951 -212v73h73v-73h-73zM878 -66h73v-73h-73v73zM805 7h73v-73h-73v73zM731 -66h74v-73h-74v-73h-73v73h-73v73h73v73h-73v74h73v73h73v-73h74v-74h-74v-73zM878 -212h-73v73h73v-73zM512 -212v73h73v-73h-73zM512 -66v73h73v-73h-73zM585 227h73v-73h-73v73zM731 227
h74v-73h-74v73zM878 154v-73h-73v73h73zM951 81h73v-74h-73v74zM951 227h73v-73h-73v73zM585 812h439v-439h-439v439zM658 446h293v293h-293v-293zM731 666h147v-147h-147v147zM0 227h439v-439h-439v439zM73 -139h293v293h-293v-293zM146 81h147v-147h-147v147zM0 812h439
v-439h-439v439zM73 446h293v293h-293v-293zM146 666h147v-147h-147v147z" />
    <glyph glyph-name="uniE61C" unicode="&#xe61c;" 
d="M-53 853zM492 114l3 -122q19 -2 23 -2h4q2 0 5 0.5t4 0.5l2 113q-2 0 -6 1t-6 1q-10 2 -29 8zM414 256q-1 -14 8 -25q3 -6 9 -10l4 73q-20 -17 -21 -38zM510 313q-4 0 -6 -0.5t-5.5 -0.5t-5.5 -1l-1 -113q7 -2 13 -4t14 -3q1 -1 6 -2t8 -3l-1 125q-19 2 -22 2zM780 456
q-16 15 -57 45t-71 54.5t-34 39.5q-1 2 -1.5 3.5t-0.5 2.5t-1 3q16 2 16 14q0 4 -2 7t-6.5 5t-10.5 2h-1q1 12 22.5 51.5t38.5 93.5q-34 10 -55.5 14.5t-40.5 0.5t-29 -8.5t-33 -19t-43 -23.5q-16 -3 -30.5 2.5t-23 15.5t-21 18.5t-27 9.5t-39.5 -11q22 -48 50.5 -89
t32.5 -55q-17 -2 -17 -14t17 -14v-5q-5 -14 -36 -39.5t-73.5 -56.5t-59.5 -47q-22 -22 -49 -68t-50 -106t-39 -126.5t-14 -130.5t20.5 -115.5t69.5 -84t128 -36.5l202 -6q23 0 201 6q191 7 215 188q20 140 -57 325q-47 110 -91 154zM681 64q-1 -15 -7 -30t-17 -30
q-7 -8 -16 -16t-19 -14.5t-22 -10.5q-3 -3 -9.5 -4.5t-7.5 -1.5l-4 -40q0 -5 -3.5 -9.5t-9 -7.5t-12.5 -3q-10 -1 -17 4.5t-7 14.5l1 31q-2 0 -6 -0.5t-6 -0.5q-9 1 -22 2l1 -32q0 -8 -7.5 -13.5t-17.5 -5.5t-17.5 6.5t-7.5 13.5l-3 40q-26 9 -42 21q-40 30 -58 93
q-1 13 7 22t21 8q9 0 16.5 -6t12.5 -13.5t5 -16.5q2 -9 5.5 -16.5t7.5 -13.5t9 -11l11 -11l-7 121q-17 6 -28 12q-29 15 -42 42q-14 25 -12 56q0 13 4 26t10 25q13 23 34 38q15 11 40 20l3 44q2 5 4 8.5t6 6.5t8.5 5t9.5 2q11 0 18 -5.5t7 -13.5l-1 -36q3 0 6 0.5t5 0.5
q7 0 27 -2l-1 37q0 8 7 14.5t18 4.5q3 0 7 -1t7 -2t5.5 -3t4.5 -4.5t3 -5t1 -6.5l3 -45l4 -2q37 -14 56 -39q17 -22 26 -68q1 -9 -3 -16.5t-11 -12t-16 -4.5q-13 0 -23.5 11t-11.5 25q-3 19 -15 34l2 -111q7 -3 14 -5.5t12.5 -4.5t8.5 -3q28 -12 42 -37q7 -11 9 -24.5
t0 -30.5zM597 84q-1 1 -3 2q-1 0 -3 1l-5 -80q1 0 1 1l2 1q25 18 27 42q0 11 -4.5 19t-14.5 14z" />
    <glyph glyph-name="uniE61D" unicode="&#xe61d;" 
d="M-53 853zM20 543v-571l457 -124v569zM1004 543l-144 -40v-212l-96 -25v211l-219 -60v-570l459 125v571zM1003 593l-492 136l-171 -47l495 -135zM20 593l491 -133l193 52l-493 133z" />
    <glyph glyph-name="uniE61E" unicode="&#xe61e;" 
d="M863 314h-71v48q0 14 -10.5 23.5t-25.5 9.5h-15v270q0 5 -1.5 9.5t-4 8.5t-6 7.5t-8 6.5t-10 5t-11.5 3t-12 1h-355q-11 0 -21 -3t-17 -8.5t-11 -13t-4 -16.5v-270h-15q-15 0 -25.5 -9.5t-10.5 -23.5v-48h-72q-11 0 -21.5 -4t-18 -11.5t-12 -17t-4.5 -20.5v-355
q0 -21 16.5 -36.5t39.5 -15.5h706q24 0 40.5 15.5t16.5 36.5v355q0 22 -16.5 37.5t-40.5 15.5zM331 655h2h355h1v-256h-1h-355h-1h-1v256zM280 344h461v-174h-461v174zM869 -93q-1 -1 -2.5 -1.5t-3.5 -0.5h-706q-3 0 -5 2v354q2 2 5 2h72v-111q0 -14 10.5 -23.5t25.5 -9.5
h491q15 0 25.5 9.5t10.5 23.5v111h71l6 -2v-354zM642 14zM616 14q0 10 7.5 17.5t18 7.5t18 -7.5t7.5 -17.5q0 -7 -3.5 -13t-9 -9.5t-12.5 -3.5q-6 0 -10.5 2t-8 5.5t-5.5 8t-2 10.5zM766 14zM741 14q0 10 7.5 17.5t18 7.5t18 -7.5t7.5 -17.5q0 -7 -3.5 -13t-9.5 -9.5
t-13 -3.5q-5 0 -9.5 2t-8 5.5t-5.5 8t-2 10.5z" />
    <glyph glyph-name="uniE61F" unicode="&#xe61f;" 
d="M512 812q-139 0 -257 -68.5t-186.5 -186.5t-68.5 -257t68.5 -257t186.5 -186.5t257 -68.5t257 68.5t186.5 186.5t68.5 257t-68.5 257t-186.5 186.5t-257 68.5zM512 -190q-66 0 -129.5 17.5t-117.5 49.5t-99 77t-77 99t-49.5 117.5t-17.5 129.5q0 99 39 190t104.5 156.5
t156.5 104.5t190 39q80 0 154.5 -25t135 -70t105.5 -105.5t70 -135t25 -154.5q0 -99 -39 -190t-104.5 -156.5t-156.5 -104.5t-190 -39zM442 506q-31 34 -71 72l-31 -26q18 -19 34.5 -37.5t32.5 -37.5zM731 554l-37 24q-28 -42 -65 -79l33 -25q38 39 69 80zM806 333v37h-321
q21 31 35 65h259v37h-244q17 48 32 104l-44 10q-7 -31 -15.5 -59.5t-18.5 -54.5h-191v-38h175q-17 -33 -40 -64h-159v-37h127q-54 -55 -134 -94q16 -18 27 -37q40 23 75 48v-28h75q-7 -51 -34 -80q-34 -38 -124 -61q12 -17 25 -40q97 29 133 71q33 36 44 110h163
q-6 -55 -11 -85q-3 -20 -17 -29.5t-38 -9.5q-40 0 -89 3q8 -23 12 -45q62 -1 90 -1q7 0 14 1t13 2.5t11.5 3.5t10 5t9 6.5t8 8t6.5 10t5.5 11.5t4.5 12.5t3 14.5q3 27 7 56.5t7 61.5l20 -12q10 -6 21 -11t22 -9.5t23 -8.5q15 22 30 42q-48 10 -87 31t-69 53h149zM681 259
h-301q22 17 41 35.5t35 38.5h153q30 -43 72 -74z" />
    <glyph glyph-name="uniE620" unicode="&#xe620;" 
d="M868 689v-877h125v877h-125zM763 783h-698q-17 0 -29.5 -12.5t-12.5 -29.5v-929h782v929q0 11 -5.5 21t-15.5 15.5t-21 5.5zM117 501h187v-250h-187v250zM680 -63h-563v63h563v-63zM680 94h-563v63h563v-63zM680 282h-282v63h282v-63zM680 439h-282v62h282v-62zM680 564
h-563v93h563v-93z" />
    <glyph glyph-name="uniE621" unicode="&#xe621;" 
d="M511 812q-83 0 -159 -32t-131 -85.5t-87.5 -127.5t-32.5 -155q0 -62 42.5 -149t102.5 -167t120.5 -151t102 -114t42.5 -43q8 9 23 24t57.5 61t81 91.5t86 108.5t81.5 119t57 115.5t23 104.5q0 47 -10.5 91.5t-31 84t-48.5 74.5t-63.5 62t-75.5 47t-86 30.5t-94 10.5z
M511 172q-102 0 -174 70.5t-72 169.5t72 169.5t174 70.5q67 0 123.5 -32t89 -87.5t32.5 -120.5q0 -99 -71.5 -169.5t-173.5 -70.5z" />
    <glyph glyph-name="uniE622" unicode="&#xe622;" 
d="M509 806q-104 0 -198 -40.5t-162 -108.5t-108.5 -162t-40.5 -198q0 -83 25.5 -160.5t73 -140t110 -110t140 -73t160.5 -25.5q104 0 198 40.5t162 108.5t108.5 162t40.5 198t-40.5 198t-108.5 162t-162 108.5t-198 40.5zM463 158h-232v-92h232v-183q-103 12 -188 69.5
t-133.5 148.5t-48.5 196q0 96 41 180.5t113 142.5l77 -230h-93v-93h232v-139zM416 390l-92 277h-5q29 15 59.5 25t63.5 15.5t67 5.5q51 0 99 -11.5t91 -34.5h-5l-92 -277h-186zM555 -117v183h232v92h-232v139h232v93h-93l77 230q72 -58 113 -142.5t41 -180.5
q0 -79 -28.5 -151.5t-78 -127t-118 -90.5t-145.5 -45z" />
    <glyph glyph-name="uniE623" unicode="&#xe623;" 
d="M1007 292q0 2 -0.5 4.5t-1.5 5t-2 4.5l-149 223q-3 4 -6 6.5t-7.5 4t-8.5 1.5h-107h-95q-5 0 -10 -2t-8.5 -5.5t-5.5 -8.5t-2 -10v-432q0 -11 7.5 -18.5t18.5 -7.5h55q0 -50 35.5 -85.5t85.5 -35.5q33 0 60.5 16t44 44t16.5 61h54q11 0 18.5 7.5t7.5 18.5v208v1zM725 299
v161h102l108 -161h-210zM806 -4q-13 0 -24 5t-19 13t-13 19t-5 24q0 25 18 42.5t43 17.5q16 0 30 -8t22 -22t8 -30q0 -25 -17.5 -43t-42.5 -18zM528 622h-454q-6 0 -11 -2t-9.5 -5t-8 -7.5t-5 -10t-1.5 -10.5v-495q0 -10 4.5 -18t12.5 -12.5t18 -4.5h86q0 -50 35.5 -85.5
t85.5 -35.5t85.5 35.5t35.5 85.5h126q15 0 25 10t10 25v495q0 14 -10 24.5t-25 10.5zM281 -4q-25 0 -43 18t-18 43t18 42.5t43 17.5q16 0 30 -8t22.5 -22t8.5 -30q0 -13 -5 -24t-13 -19t-19.5 -13t-23.5 -5z" />
    <glyph glyph-name="uniE624" unicode="&#xe624;" 
d="M511 -211q-103 0 -197.5 40.5t-163 109t-109 162.5t-40.5 198t40.5 198.5t109 162.5t163 108.5t198 40.5t198 -40.5t162.5 -108.5t108.5 -162.5t40.5 -198.5q0 -211 -149 -360.5t-361 -149.5zM511 713q-112 0 -207.5 -55t-151 -150.5t-55.5 -208t55.5 -208t151 -151
t208 -55.5t208 55.5t151 151t55.5 207.5q0 43 -8.5 84t-24.5 77.5t-38.5 70t-50.5 61.5t-61.5 50.5t-70 38.5t-77.5 24t-84 8zM421 391h-64q-1 46 13.5 79.5t44.5 53.5q42 34 103 34q139 -11 148 -139q2 -59 -64 -120q-73 -53 -64 -128h-61q-3 53 11 81q8 25 55 72
q2 1 3 2.5t3 3.5q58 50 53 92q-9 80 -86 83q-88 -3 -95 -94v-1v-1v-1v-1v-1v-1v-1v-1v-1v-1v-1v-1v-1v-1v-1v-1v-4zM543 113v-72h-69v72h69z" />
    <glyph glyph-name="uniE625" unicode="&#xe625;" horiz-adv-x="1025" 
d="M960 716h64v-831h-64v831zM800 716h64v-576h-64v576zM640 716h96v-576h-96v576zM512 716h64v-576h-64v576zM320 716h128v-576h-128v576zM892 31q0 -22 -21 -47l-57 -65h78v-33h-123v33l76 88q10 12 10 24q0 11 -6.5 18t-17.5 7q-25 0 -25 -26h-37q0 27 17.5 43t44.5 16
t44 -15.5t17 -42.5zM736 32q0 -29 -23 -42q12 -6 19 -17.5t7 -28.5q0 -29 -18.5 -44.5t-45.5 -15.5q-17 0 -31 6t-23.5 19.5t-9.5 34.5h36q1 -13 8.5 -20t19.5 -7t19.5 7.5t7.5 20.5t-7.5 20.5t-20.5 7.5h-6v32h6q25 0 25 25q0 13 -7 19.5t-17.5 6.5t-17.5 -6.5t-7 -17.5
h-37q0 10 3.5 19.5t9 16.5t13 11.5t17 7t19.5 2.5q6 0 12.5 -1t12 -3t10.5 -5t9 -7t7 -8.5t5.5 -9.5t3.5 -11t1 -12zM482 -114l65 168h-53v-31h-35v65h128v-34l-65 -168h-40zM377 7q-9 0 -15 -3l42 84h-40l-43 -88q-17 -34 -17 -54q0 -29 18 -45.5t45.5 -16.5t45 17t17.5 46
q0 42 -34 56q-10 4 -19 4zM367 -83q-7 0 -13 3.5t-9.5 10.5t-3.5 16q0 13 7.5 21t19 8t18.5 -8t7 -21q0 -14 -7 -22t-19 -8zM214 89q-26 0 -44 -16t-18 -44v-85q0 -14 5 -25.5t13.5 -19t19.5 -11.5t24 -4q26 0 43.5 16t17.5 44v85q0 28 -17.5 44t-43.5 16zM238 -56
q0 -12 -6.5 -19.5t-17.5 -7.5q-6 0 -10.5 2t-7.5 5.5t-5 8.5t-2 11v85q0 12 7 19.5t18 7.5t17.5 -7.5t6.5 -19.5v-85zM192 716h64v-576h-64v576zM0 716h96v-831h-96v831z" />
    <glyph glyph-name="uniE626" unicode="&#xe626;" 
d="M280 319zM705 487zM571 613zM681 430h-351v213h71q9 36 38 59.5t66.5 23.5t66.5 -23.5t37 -59.5h72v-213zM379 479h252v115h-68v25q0 24 -17 40.5t-41 16.5t-40.5 -16.5t-16.5 -40.5v-25h-69v-115zM745 -118h-171v49h171q35 0 60 25t25 60v466q0 35 -25 60t-60 25h-64
v-137h-351v137h-51q-35 0 -60 -25t-25 -60v-329h-49v329q0 36 18 67t49 49t67 18h100v-137h252v137h114q55 0 94.5 -39.5t39.5 -94.5v-466q0 -16 -3.5 -31t-10 -28t-16 -25t-21 -21t-24.5 -15.5t-28 -10t-31 -3.5zM363 72q-60 0 -103 47.5t-43 114.5q0 44 19.5 81.5t53 59.5
t73.5 22t73.5 -22t53 -59.5t19.5 -81.5q0 -67 -43 -114.5t-103 -47.5zM363 348q-20 0 -38 -9t-31 -24.5t-20.5 -36.5t-7.5 -44q0 -46 28.5 -79.5t68.5 -33.5t68.5 33.5t28.5 80t-28.5 80t-68.5 33.5zM428 -109h-130q-32 0 -55.5 11t-36 28t-18 33.5t-6.5 31.5v47
q0 22 8.5 42t19 32.5t24.5 24t20 15t10 5.5l22 -44q-2 -1 -6 -3.5t-13 -9.5t-16.5 -15.5t-13 -21t-5.5 -25.5v-46q0 -6 2 -13t8 -18t20.5 -18t35.5 -7h130q18 0 31 5.5t19.5 12.5t10.5 16.5t4.5 14t0.5 8.5v45q0 10 -3 19t-7.5 16t-10.5 14t-11.5 11.5t-11 8t-7.5 5t-3 1.5
l22 44q4 -2 10 -5.5t20 -15t24.5 -24t19 -32.5t8.5 -42v-46q-1 -16 -6.5 -32.5t-18 -33.5t-36 -28t-55.5 -11zM673 163l-83 82l35 35l83 -82zM708 163l-35 35l82 82l35 -35zM581 205h219v-49h-219v49zM581 123h219v-49h-219v49zM665 180h50v-219h-50v219z" />
    <glyph glyph-name="uniE627" unicode="&#xe627;" 
d="M280 319zM705 487zM571 613zM856 11h-79v54h79q14 0 23.5 9.5t9.5 23.5v89q0 4 -1 8t-2.5 7t-3.5 6t-5 5t-6.5 3.5t-7 2.5t-7.5 1h-687q-9 0 -16.5 -4.5t-12 -12t-4.5 -16.5v-89q0 -14 9.5 -23.5t23.5 -9.5h70v-54h-70q-36 0 -61.5 25.5t-25.5 61.5v89q0 18 7 34
t18.5 27.5t27.5 18.5t34 7h687q24 0 44 -11.5t31.5 -31.5t11.5 -44v-89q0 -49 -42 -74q-21 -13 -45 -13zM779 220h-532v386q0 35 25.5 60.5t60.5 25.5h359q36 0 61.5 -25.5t25.5 -60.5v-386zM300 274h425v332q0 13 -9.5 22.5t-23.5 9.5h-359q-13 0 -23 -9.5t-10 -22.5v-332z
M722 -79h-419q-35 0 -60.5 25.5t-25.5 61.5v60q0 36 25.5 61t60.5 25h419q36 0 61 -25t25 -61v-60q0 -36 -25 -61.5t-61 -25.5zM303 101q-13 0 -22.5 -10t-9.5 -23v-60q0 -14 9.5 -23.5t22.5 -9.5h419q13 0 23 9.5t10 23.5v60q0 13 -10 23t-23 10h-419z" />
    <glyph glyph-name="uniE628" unicode="&#xe628;" 
d="M512 748q-73 0 -141.5 -22.5t-123.5 -64t-96.5 -96.5t-64 -123.5t-22.5 -141.5q0 -91 35.5 -174t95.5 -143t143 -95.5t174 -35.5t174 35.5t143 95.5t95.5 143t35.5 174q0 73 -22.5 141.5t-64 123.5t-96.5 96.5t-123.5 64t-141.5 22.5zM512 -76q-102 0 -188.5 50.5
t-137 137t-50.5 188.5t50.5 188.5t137 137t188.5 50.5q61 0 118.5 -19t104 -53.5t81 -81t53.5 -104t19 -118.5q0 -150 -103 -258q-100 -107 -246 -117q-14 -1 -27 -1zM475 224q-18 0 -30.5 12.5t-12.5 29.5v298q0 18 12.5 30.5t30.5 12.5q11 0 21 -5.5t15.5 -15.5t5.5 -22
v-255h181q18 0 30.5 -12.5t12.5 -30.5q0 -11 -6 -21t-15.5 -15.5t-21.5 -5.5h-223z" />
    <glyph glyph-name="uniE629" unicode="&#xe629;" 
d="M903 5h-62q-5 5 -12 13.5t-25.5 31.5t-31.5 42q-11 8 -21 9.5t-18 -3t-16.5 -13t-16 -19t-17 -21.5t-18.5 -19.5t-21.5 -14.5t-25.5 -6h-189q5 16 8.5 34.5t7.5 50t0 63t-13.5 65t-34 64t-60.5 52.5q36 -48 54 -96.5t18.5 -83t-8.5 -68t-18.5 -50.5t-19.5 -31h-128
q-24 0 -50.5 12.5t-46.5 30.5t-37 35.5t-26 30.5l-9 12q2 4 4 10t11 25t19 37.5t27 43.5t36 47t45.5 44t54.5 37.5t64.5 25t74.5 9.5q49 0 88 -14t64 -36.5t46.5 -49.5t41 -54t41 -49t52 -35t68.5 -13q33 33 71 59t60 36l22 10q-3 -3 -6.5 -7.5t-13 -20t-17.5 -31.5t-16 -40
t-11 -47.5t-1 -52t12 -55.5zM263 251q-17 0 -28.5 -11.5t-11.5 -27.5q0 -11 5.5 -20t14.5 -14.5t20 -5.5q16 0 27.5 12t11.5 28q0 11 -5 20t-14.5 14t-19.5 5zM641 299q7 -1 19.5 -3.5t40 -13t43.5 -25.5q6 -13 4.5 -27t-5.5 -25l-5 -12zM345 429q2 1 4.5 3.5t11 10t19 13
t27 13.5t35 11.5t43.5 6t51 -2.5q0 -1 -1 -3q-3 -9 -3.5 -16.5t3 -23t19.5 -39.5t44 -55q-28 30 -64.5 50t-68.5 26t-59.5 8t-43.5 0zM511 541q7 21 -2 45.5t-22.5 43.5t-22 38t1.5 37t44 34q-25 -50 9 -90q20 -16 27.5 -33.5t4 -30t-11.5 -23t-16 -16t-12 -5.5zM438 502
q5 14 -1.5 30.5t-15 29t-14.5 25.5t0.5 25t29.5 22q-7 -14 -6.5 -26.5t3.5 -19t9 -13.5q10 -9 15.5 -17t6 -15t-1 -13.5t-5 -11.5t-7.5 -8.5t-7.5 -5.5t-5.5 -2zM512 -89q-178 0 -306.5 21.5t-139.5 53.5h891q-3 -9 -16.5 -17.5t-36.5 -16t-53.5 -14t-68.5 -11.5t-80.5 -8.5
t-91 -5.5t-98.5 -2zM762 -139h-502v35h502v-35z" />
    <glyph glyph-name="uniE62A" unicode="&#xe62a;" 
d="M590 390q-19 5 -39 8t-41 3q-14 0 -27.5 -1.5t-26.5 -4t-26 -5.5v248h-214v-124l104 -184q-31 -27 -53.5 -61t-34.5 -75t-12 -84q0 -120 85 -205t205.5 -85t205.5 85t85 205q0 70 -31 131t-85 101l119 170v126h-214v-248zM697 110q0 -77 -55 -132t-132 -55t-132 55
t-55 132t55 132t132 55t132 -55t55 -132zM134 777v-84h752v84h-752zM504 284l-37 -114h-120q-5 -1 -6 -4q-1 -2 -0.5 -4.5t2.5 -3.5l97 -70l-38 -115q-1 -5 3 -7.5t8 0.5l97 70l97 -70q2 -2 4 -2t4 2q4 2 3 7l-38 115l97 70q4 3 3 8q-1 2 -2.5 3t-4.5 1h-119l-38 114
q0 2 -2 3.5t-4 1.5q-5 0 -6 -5z" />
    <glyph glyph-name="uniE62B" unicode="&#xe62b;" 
d="M512 812q-188 0 -332 -122q-136 -116 -171 -292q-9 -49 -9 -98q0 -104 40.5 -199t109 -163.5t163.5 -109t199 -40.5t199 40.5t163.5 109t109 163.5t40.5 199q0 83 -26 161.5t-73 141.5t-110 110t-141.5 73t-161.5 26zM794 140q-5 -4 -11.5 -4t-14 4t-16 12t-16.5 20
q-14 -38 -36 -71q51 -18 51 -47q0 -25 -39 -43t-94 -18q-66 0 -106 24q-39 -24 -106 -24q-55 0 -93.5 18t-38.5 43q0 29 50 47q-21 32 -36 71q-16 -23 -31.5 -31.5t-25.5 -0.5q-14 13 -9.5 52.5t24.5 81.5q5 10 10 18.5t10 16.5q3 124 74.5 211t171.5 87q101 0 172.5 -87
t74.5 -211q3 -5 6.5 -10.5t6.5 -11.5t6 -13q10 -21 16.5 -42.5t8.5 -39.5t0 -31.5t-9 -20.5z" />
    <glyph glyph-name="uniE62C" unicode="&#xe62c;" 
d="M848 522h-151q13 7 24.5 15.5t21.5 17.5q45 43 52.5 96t-28.5 86q-29 27 -75 27q-66 0 -120 -50q-31 -28 -50 -69q-20 41 -51 69q-54 50 -120 50q-46 0 -75 -27q-36 -33 -28.5 -86t52.5 -96q20 -18 46 -33h-151q-27 0 -46 -19t-19 -46v-229h359v265q9 3 17 7t14 10l2 1
l1 -1q12 -12 31 -17v-265h359v229q0 27 -19 46t-46 19zM475 559q-1 0 -1 -0.5t-1.5 -1t-3.5 -0.5t-5 -0.5t-6 -0.5q-26 0 -58 13.5t-54 34.5q-17 15 -25 32t-8 31t8 21q10 10 30 10q40 0 75 -32q14 -14 25.5 -31.5t16.5 -32t7.5 -27.5t-0.5 -16zM569 558q-3 4 -0.5 17
t7.5 27.5t16 32t25 31.5q17 15 36.5 23.5t38.5 8.5q20 0 30 -10q8 -7 8 -21q0 -9 -3 -18.5t-10.5 -21.5t-19.5 -23q-10 -10 -24.5 -19t-29.5 -15.5t-30 -10t-28 -3.5q-4 0 -8 0.5t-6 1.5h-2zM554 -131h294q27 0 46 19t19 46v229h-359v-294zM130 -66q0 -13 5 -25t14 -21
t21 -14t25 -5h294v294h-359v-229z" />
    <glyph glyph-name="uniE62D" unicode="&#xe62d;" 
d="M420 601q0 19 9.5 35.5t26.5 26t37 9.5h80q31 0 52 -21t21 -50v-173h96v173q0 68 -49.5 116t-119.5 48h-80q-70 0 -119 -48t-49 -116v-80h95v80zM233 378v-261q0 -103 75 -176t180 -73h79q105 0 180 73t75 176v261h-589zM565 146v-114q0 -10 -7.5 -17.5t-18 -7.5t-18 7.5
t-7.5 17.5v114q-12 5 -21 14t-14.5 21t-5.5 25q0 18 9 33t24.5 23.5t33.5 8.5q27 0 46.5 -19t19.5 -46q0 -10 -3 -19.5t-8.5 -17t-13 -13.5t-16.5 -10z" />
    <glyph glyph-name="uniE62E" unicode="&#xe62e;" 
d="M204 551h167v-45h-167v45zM204 454h167v-45h-167v45zM204 356h167v-45h-167v45zM479 684h-279l-104 -122v-379h383v501zM412 239h-249v303l79 86h170v-389zM626 333h71v-206h-71v206zM745 461h70v-334h-70v334zM901 583h-398v-56h356v-431h-588v61h-69v-93q0 -10 7 -17.5
t17 -7.5h308v-80h-140v-58h346v58h-139v80h300q7 0 12.5 3.5t9 9t3.5 12.5v495q0 5 -2 9.5t-5.5 7.5t-8 5t-9.5 2zM508 273h70v-146h-70v146z" />
    <glyph glyph-name="uniE62F" unicode="&#xe62f;" 
d="M673 267q-1 0 -1.5 1t-0.5 2t0.5 2.5t1.5 2.5q24 24 38.5 60t14.5 74q0 29 -9.5 54.5t-25.5 44t-39 28.5t-50 10q-54 0 -89 -38.5t-35 -98.5q0 -51 48 -127q4 -9 5 -15q-7 -1 -14 -2.5t-14 -3.5q-15 16 -37 31t-42 20q34 39 34 95q0 47 -27.5 77t-69.5 30
q-28 0 -50 -13.5t-34.5 -38t-12.5 -55.5q0 -26 9 -51.5t26 -44.5q-35 -8 -63.5 -23.5t-44 -35.5t-15.5 -40q0 -16 7 -28t22.5 -19t29.5 -11.5t36 -6t34 -2.5t32 -1l1 57q-33 1 -56.5 3.5t-32.5 5t-14 4.5q7 11 29.5 24t55.5 19l5 2q14 5 21.5 14t10.5 19q8 25 -9 50l-4 5
q-23 22 -23 60q0 9 2 17t5.5 14t8 10.5t11 6.5t13.5 2q18 0 29 -13.5t11 -36.5q0 -38 -24 -61q-22 -23 -14 -53q9 -28 37 -35l4 -1h4q11 -1 35 -19q-26 -13 -46 -29.5t-30.5 -35t-10.5 -36.5q0 -22 15 -38t36.5 -24.5t57 -13.5t65.5 -6t72 -1t72 1t65.5 6t57.5 13.5
t36.5 24.5t14.5 38q0 41 -50.5 78.5t-124.5 51.5zM602 111q-47 0 -83.5 2.5t-55 5.5t-31 7t-15.5 6.5t-4 4.5q0 8 14 21.5t45.5 29.5t71.5 23q30 7 40 30q4 7 5 14.5t0 16t-4 17.5t-8 20l-2 2q-14 22 -26.5 51t-12.5 47t4.5 32.5t13.5 25t21 16.5t27 6q30 0 48.5 -22
t18.5 -58q0 -26 -10 -52t-27 -42q-26 -27 -16 -62q3 -7 7 -14t9.5 -12.5t13 -9.5t15.5 -6q39 -7 70.5 -22.5t45.5 -29.5t14 -22q-11 -22 -145 -25zM824 812h-624q-83 0 -141.5 -55t-58.5 -133v-648q0 -78 58.5 -133t141.5 -55h624q83 0 141.5 55t58.5 133v648q0 51 -27 94.5
t-73 68.5t-100 25zM952 -24q0 -24 -10 -45.5t-27 -37t-41 -24.5t-50 -9h-624q-53 0 -90.5 34t-37.5 82v648q0 48 37.5 82t90.5 34h624q26 0 50 -9t41 -24.5t27 -37t10 -45.5v-648z" />
    <glyph glyph-name="uniE630" unicode="&#xe630;" 
d="M693 465q15 0 35 -2q-23 109 -127.5 181.5t-238.5 72.5q-58 0 -113.5 -15.5t-100 -43.5t-78 -66t-52 -85t-18.5 -98q0 -143 145 -245l-36 -109l127 64q6 -2 25 -5.5t27 -5t22.5 -4t26.5 -3t25 -0.5q16 0 34 1q-5 19 -8 38t-3 38q0 119 89.5 203t218.5 84zM498 563
q21 0 33.5 -12.5t12.5 -32.5q0 -14 -6 -24t-16 -16t-24 -6q-21 0 -37.5 13t-16.5 32.5t16.5 32.5t37.5 13zM245 472q-14 0 -26.5 6t-20.5 16.5t-8 23.5t8 23.5t20.5 16t26.5 5.5q20 0 32.5 -12.5t12.5 -33t-12.5 -33t-32.5 -12.5zM1024 182q0 71 -43 132t-113.5 96
t-151.5 35q-129 0 -218.5 -77t-89.5 -186t89.5 -186t218.5 -77q37 0 109 18l99 -54l-27 90q127 96 127 209zM616 228q-13 0 -24.5 11t-11.5 25q0 9 5 17.5t13.5 13.5t17.5 5q20 0 33 -11t13 -25q0 -7 -3.5 -13.5t-9.5 -11.5t-14.5 -8t-18.5 -3zM815 228q-8 0 -16.5 5
t-14 13.5t-5.5 17.5q0 13 11.5 24.5t24.5 11.5q20 0 33 -11t13 -25q0 -7 -3.5 -13.5t-9 -11.5t-14.5 -8t-19 -3z" />
    <glyph glyph-name="uniE631" unicode="&#xe631;" 
d="M759 496h-170q-8 0 -15 -2v76q0 24 -17 40.5t-41 16.5l-390 1q-49 0 -59 -50l-2 -10v-454q0 -16 8 -29t21 -21t29 -8h74q10 -35 39.5 -57t67 -22t67 22t40.5 57h105q20 0 36 12q7 -6 17 -9.5t20 -3.5h62q5 -17 15.5 -31.5t24.5 -24.5t31 -16t36 -6q24 0 46 10t37.5 27.5
t22.5 40.5h38q24 0 40.5 16.5t16.5 40.5v184zM304 19q-15 0 -27.5 5.5t-22 15t-15 22.5t-5.5 27q0 29 20.5 49.5t49.5 20.5q19 0 35 -9.5t25 -25.5t9 -35q0 -29 -20 -49.5t-49 -20.5zM527 138q0 -8 -4 -14.5t-10.5 -10.5t-14.5 -4h-84q-5 26 -20.5 47t-39 33t-50.5 12
t-50.5 -12t-39.5 -33t-20 -47h-52q-12 0 -20.5 8.5t-8.5 20.5q-1 370 -1 403q0 15 8.5 23t16.5 9l9 1h238h114q4 0 8.5 -1.5t8 -4t6.5 -6t4.5 -8t1.5 -9.5v-407zM880 314q-2 -7 -8 -11t-13 -4h-198q-9 0 -15 6.5t-6 14.5v40q0 8 6 14.5t15 6.5h152zM758 19q-29 0 -49.5 20.5
t-20.5 49.5t20.5 49.5t49 20.5t49 -20.5t20.5 -49.5t-20.5 -49.5t-48.5 -20.5zM914 128q0 -12 -8.5 -20.5t-20.5 -8.5h-16q-4 43 -36 72.5t-75 29.5q-29 0 -54 -13.5t-40 -37t-18 -51.5h-46q-18 0 -26 17v319q8 17 26 17h142l38 -38h-127q-18 0 -30.5 -12.5t-12.5 -30.5v-62
q0 -18 12.5 -30.5t30.5 -12.5h218q24 0 37 20l6 -6v-152zM146 574z" />
    <glyph glyph-name="uniE632" unicode="&#xe632;" 
d="M0 -212v1024h1024v-1024h-1024zM960 748h-896v-704h896v704zM448 236q1 7 3.5 18.5t11 44.5t18.5 63.5t27 67t35.5 63.5t44 45t52.5 18t52.5 -21t44.5 -55t35 -75t27 -82t18.5 -75t11.5 -55l3 -21h-640q0 4 1 11t5.5 27t10 38t16 40.5t23 38.5t31.5 26.5t41 10.5t41 -7.5
t31.5 -18.5t22.5 -24.5t16 -27.5t10 -25t5 -18zM288 428q-40 0 -68 28t-28 68t28 68t68 28q20 0 37.5 -7.5t30.5 -20.5t20.5 -30.5t7.5 -37.5q0 -40 -28 -68t-68 -28z" />
    <glyph glyph-name="uniE633" unicode="&#xe633;" 
d="M820 377h-28v243q0 35 -29.5 60.5t-71.5 25.5h-348q-42 0 -71.5 -25.5t-29.5 -60.5v-243h-28q-21 0 -35.5 -12.5t-14.5 -30.5v-393q0 -17 14.5 -30t35.5 -13h606q8 0 16 2.5t14 6.5t10.5 9t7 11.5t2.5 13.5v393q0 18 -14.5 30.5t-35.5 12.5zM565 1q0 -4 -2 -7t-6 -5
t-9 -2h-62q-3 0 -6.5 1t-5.5 3t-3.5 4.5t-1.5 5.5l16 186q-33 19 -33 57q0 17 9 32t24 23.5t32 8.5q27 0 46 -18.5t19 -45.5q0 -5 -0.5 -9.5t-1.5 -8.5l-4 -8q-1 -4 -3 -7.5t-5 -7t-6 -6t-6 -5.5t-7 -5zM704 377h-374v216q0 18 15 30.5t36 12.5h273q21 0 35.5 -12.5
t14.5 -30.5v-216z" />
    <glyph glyph-name="uniE634" unicode="&#xe634;" 
d="M952 624h-876q-11 0 -18.5 -7.5t-7.5 -18.5v-606q0 -6 3.5 -12t9.5 -9.5t13 -3.5h876q11 0 18.5 7.5t7.5 17.5v606q0 7 -3.5 13t-9.5 9.5t-13 3.5zM189 57q0 -5 -3.5 -9t-9.5 -4h-58q-3 0 -6 2t-4.5 4.5t-1.5 6.5v58q0 5 3.5 9t8.5 4h58q3 0 4.5 -1t3.5 -2t3 -2.5
t1.5 -3.5t0.5 -4v-58zM189 199q0 -4 -1.5 -7t-4.5 -4.5t-7 -1.5h-58q-5 0 -8.5 3.5t-3.5 9.5v58q0 5 3.5 9t8.5 4h58q13 0 13 -13v-58zM189 334q0 -5 -3.5 -9t-9.5 -4h-58q-3 0 -6 2t-4.5 4.5t-1.5 6.5v58q0 5 3.5 9t8.5 4h58q6 0 9.5 -4t3.5 -9v-58zM189 476q0 -2 -0.5 -4
t-1.5 -3.5t-3 -3t-3.5 -2t-4.5 -0.5h-58q-3 0 -6 1.5t-4.5 4.5t-1.5 7v58q0 5 3.5 9t8.5 4h58q6 0 9.5 -4t3.5 -9v-58zM778 53q0 -11 -7.5 -18.5t-18.5 -7.5h-476q-11 0 -18.5 7.5t-7.5 18.5v486q0 10 7.5 17.5t18.5 7.5h476q11 0 18.5 -7.5t7.5 -17.5v-486zM922 57
q0 -5 -3.5 -9t-9.5 -4h-58q-5 0 -9 4t-4 9v58q0 5 4 9t9 4h58q3 0 5.5 -1t4 -3t2.5 -4t1 -5v-58zM922 199q0 -6 -3.5 -9.5t-9.5 -3.5h-58q-3 0 -6 1.5t-5 4.5t-2 7v58q0 5 4 9t9 4h58q4 0 7 -2t4.5 -5t1.5 -6v-58zM922 334q0 -5 -3.5 -9t-9.5 -4h-58q-3 0 -6 2t-5 4.5
t-2 6.5v58q0 5 4 9t9 4h58q6 0 9.5 -4t3.5 -9v-58zM922 476q0 -6 -3.5 -9.5t-9.5 -3.5h-58q-5 0 -9 3.5t-4 9.5v58q0 5 4 9t9 4h58q4 0 7 -2t4.5 -5t1.5 -6v-58zM411 176l238 119l-238 119v-238z" />
    <glyph glyph-name="uniE635" unicode="&#xe635;" 
d="M773 337v33h-42v-33h-131l93 92l23 -24l30 30l-24 24l131 130l-52 52l-130 -131l-24 24l-30 -30l24 -23l-92 -93v131h33v42h-33v184h-74v-184h-33v-42h33v-131l-92 93l24 23l-30 30l-24 -24l-130 131l-52 -52l131 -130l-24 -24l30 -30l23 24l93 -92h-131v33h-42v-33h-184
v-74h184v-33h42v33h131l-93 -92l-23 24l-30 -30l24 -24l-131 -130l52 -52l130 131l24 -24l30 30l-24 23l92 93v-131h-33v-42h33v-184h74v184h33v42h-33v131l92 -93l-24 -23l30 -30l24 24l130 -131l52 52l-131 130l24 24l-30 30l-23 -24l-93 92h131v-33h42v33h184v74h-184z
M162 355q23 0 43 11.5t31.5 31t11.5 43.5q0 36 -25 61t-61 25t-61.5 -25t-25.5 -61t25.5 -61t61.5 -25zM161.5 514q30.5 0 52 -21.5t21.5 -51.5t-21.5 -51.5t-51.5 -21.5q-15 0 -28.5 5.5t-23.5 15.5t-15.5 23.5t-5.5 28.5q0 30 21 51.5t51.5 21.5zM225.5 213
q-25.5 25 -61 25t-60.5 -25q-13 -12 -19.5 -28.5t-6.5 -32.5t6.5 -32.5t19.5 -28.5q25 -25 60.5 -25t61 25t25.5 61t-25.5 61zM113 100q-22 22 -22 52t21.5 51.5t52 21.5t52 -21.5t21.5 -51.5t-22 -52q-32 -32 -75 -17q-16 6 -28 17zM371 36q-23 0 -43 -11.5t-31.5 -31.5
t-11.5 -43q0 -36 25 -61.5t61 -25.5t61 25.5t25 61.5t-25 61t-61 25zM371 -123q-20 0 -37 9.5t-26.5 26.5t-9.5 37q0 30 21.5 51.5t51.5 21.5q12 0 23 -3.5t20 -10.5t16 -16t10.5 -20t3.5 -23q0 -9 -2 -17t-5.5 -15.5t-8.5 -13.5t-11.5 -11t-13.5 -9t-15 -5.5t-17 -1.5z
M599 14q-8 -9 -14 -19t-8.5 -20.5t-2.5 -22t2.5 -22t8.5 -20.5t14 -18q25 -26 61 -26t61 26q17 16 22.5 38.5t0 44.5t-22.5 39q-25 25 -61 25t-61 -25zM712 -99q-22 -22 -52 -22t-52 22q-14 14 -19 33t0 37.5t19 32.5q22 22 52 22t52 -22q8 -8 13.5 -18.5t7 -21.5t0 -22.5
t-7 -22t-13.5 -18.5zM862 245q-23 0 -43 -11.5t-31.5 -31t-11.5 -43.5q0 -36 25 -61t61 -25t61.5 25t25.5 61t-25.5 61t-61.5 25zM862 86q-15 0 -28.5 5.5t-23 15.5t-15.5 23.5t-6 28.5t6 28.5t15.5 23.5t23 15.5t28.5 5.5q31 0 52 -21.5t21 -51.5t-21 -51.5t-52 -21.5z
M798 387q17 -17 39 -22.5t44.5 0t39 22t22.5 39t0 44.5t-23 39q-25 25 -60.5 25t-61.5 -25q-10 -10 -16 -22.5t-8 -25.5t0 -26t8 -25.5t16 -22.5zM911.5 499.5q21.5 -21.5 21.5 -51.5t-21.5 -51.5t-52 -21.5t-52 21.5t-21.5 51.5t21.5 51.5t52 21.5t52 -21.5zM653 564
q36 0 61 25t25 61q0 18 -6.5 34t-18 27.5t-27.5 18.5t-34 7q-36 0 -61 -25.5t-25 -61.5t25 -61t61 -25zM653 723q30 0 51.5 -21t21.5 -52q0 -15 -5.5 -28.5t-15.5 -23t-23.5 -15.5t-28.5 -6q-30 0 -51.5 21.5t-21.5 51.5q0 20 9.5 37t26.5 26.5t37 9.5zM425 586.5
q25 25.5 25 61t-25 61t-61 25.5t-61 -25.5t-25 -61t25 -61t61 -25.5t61 25.5zM312.5 699.5q21.5 21.5 51.5 21.5t52 -22q14 -14 19 -33t0 -37.5t-19 -32.5q-22 -22 -52 -22t-51.5 21.5t-21.5 52t21.5 52z" />
    <glyph glyph-name="uniE636" unicode="&#xe636;" 
d="M960 384q0 42 -35.5 80t-95.5 65.5t-143 44t-174 16.5t-174 -16.5t-143 -44t-95.5 -65.5t-35.5 -80v-6v-195v0v-4q3 -46 63.5 -85t162.5 -61.5t222 -22.5t222 22.5t162.5 61.5t63.5 85v199v6zM502 576q38 0 74.5 -3t71.5 -9l-102 -101v39h-41v-81l-20 -20h-33v101h-41
v-101h-52v101h-42v-101h-51v100l-168 -117l168 -118v108h51v-108h33l-49 -48q-78 19 -132 52q-11 7 -21 14l-12 -6l12 6q-31 23 -47 48.5t-16 52.5q0 52 55.5 96t152 69.5t209.5 25.5zM458 374l-6 -5v5h6zM411 374v-46l-52 -53v99h52zM246 388q0 -6 -2.5 -11.5t-6 -9t-9 -6
t-11.5 -2.5q-11 0 -19.5 8.5t-8.5 20t8.5 20t20 8.5t20 -8.5t8.5 -19.5zM149 264q-2 2 -4 3t-3.5 2t-3.5 3q5 -4 11 -8zM83 233v93q17 -27 50 -51v0q-11 -6 -20 -13t-16.5 -14.5t-13.5 -14.5zM512 25q-111 0 -205.5 21t-149.5 57.5t-55 79.5q0 42 53 78q62 -38 155.5 -60
t201.5 -22t201.5 22t155.5 60q53 -36 53 -78q0 -43 -55 -79.5t-149.5 -57.5t-205.5 -21zM941 233q-17 22 -50 42q33 24 50 51v-93z" />
    <glyph glyph-name="uniE637" unicode="&#xe637;" horiz-adv-x="1025" 
d="M512 748q91 0 174 -35.5t143 -95.5t95.5 -143t35.5 -174t-36 -174q-34 -80 -96 -142t-142 -96q-83 -36 -174 -36t-174 36q-80 34 -142 96t-96 142q-36 83 -36 174t35.5 174t95.5 143t143 95.5t174 35.5zM512 812q-104 0 -199 -40.5t-163.5 -109t-109 -163.5t-40.5 -199
t40.5 -198.5t109 -163.5t163.5 -109.5t199 -40.5t199 40.5t163.5 109.5t109 163.5t40.5 198.5t-40.5 199t-109 163.5t-163.5 109t-199 40.5zM320 365h384v-65h-384v65zM639 172v-128h-255v128h255zM704 236h-65h-255h-64v-64v-128v-65h64h255h65v65v128v64zM256 346l-39 52
l295 221l294 -219l-39 -52l-255 190z" />
    <glyph glyph-name="uniE638" unicode="&#xe638;" 
d="M499 467q20 0 32 12t12 32q0 10 -3.5 18t-9 13.5t-13.5 9t-18 3.5q-21 0 -37 -12.5t-16 -31.5q0 -4 1 -7l2 -8q1 -3 3 -6t5 -6t6 -5l6 -4q3 -2 6.5 -3.5t7.5 -2.5t8 -1.5t8 -0.5zM253 555q-21 0 -37 -12.5t-16 -31.5t16 -31.5t37 -12.5q20 0 32 12t12 32q0 13 -5.5 23
t-15.5 15.5t-23 5.5zM1024 186q0 104 -84 182t-203 87v3v3q-24 111 -130 185t-240 74q-151 0 -259 -92q-103 -88 -108 -212v-11q0 -142 138 -243l-32 -94q-1 -3 -0.5 -6t1.5 -6t4 -5q2 -2 5 -3t5 -1q4 0 8 2l117 59l15 -3q18 -4 27.5 -6t24 -4t27.5 -3t27 -1h11q6 0 12 0.5
t11 0.5q3 0 5 1t3.5 2t2.5 3q33 -81 114.5 -132t183.5 -51q37 0 103 17l91 -50q2 -1 3.5 -1.5t3.5 -0.5l11 3q8 7 5 18l-23 77q120 95 120 208zM399 124q-16 -1 -32 -1q-13 0 -25 1t-25.5 3t-23 3.5t-26.5 5.5l-20 4q-5 1 -10 -1l-88 -45l23 69q0 2 0.5 4.5t0 4t-1.5 3.5
t-2.5 3.5t-2.5 3.5q-134 93 -134 223q0 77 45 142t122 103t168 38q60 0 117.5 -17.5t102 -48.5t76 -74t42.5 -92q-63 0 -120.5 -22t-99 -58t-66 -86t-24.5 -104q0 -11 1 -21.5t3 -20.5t5 -21q-4 1 -5 1zM875 -4q-8 -6 -5 -17l15 -50l-62 34q-2 1 -4 1.5t-4 0.5t-4 -1
q-67 -17 -101 -17q-117 0 -200 70t-83 169q0 39 14.5 75.5t40.5 65.5t61 51.5t78 34.5t89 12q56 0 108 -19.5t90 -51.5t61 -76t23 -92q0 -49 -30 -98t-87 -92zM613 300q-13 0 -24 -11t-11 -24t11 -24t24 -11q19 0 31.5 10.5t12.5 24.5t-12.5 24.5t-31.5 10.5zM806 300
q-13 0 -24 -11t-11 -24t11 -24t24 -11q19 0 31.5 10.5t12.5 24.5q0 23 -26 32q-9 3 -18 3z" />
    <glyph glyph-name="uniE639" unicode="&#xe639;" 
d="M911 746q-37 0 -361 -19h-1q-1 0 -2.5 -0.5t-2.5 -0.5q-3 0 -6 -0.5t-7 -2.5t-7 -4v-1q-2 -1 -3 -3l-509 -508q-8 -8 -10.5 -18t0 -20.5t10.5 -18.5l350 -350q2 -2 4.5 -4t4.5 -3t4.5 -2t4.5 -1l6 -2h5q8 0 15 3t13 9l506 506l3 3h1q6 11 9 27l22 364v2l-0.5 2t-1 4.5
t-1.5 5.5t-2.5 6t-3.5 6t-5 5q-13 13 -32 15h-2h-1zM391 -138l-317 317l482 481q279 18 329 18l7 -1q1 -9 -4 -93t-11 -162l-6 -79l-3 -4zM673.5 497q7.5 0 14 -3t11.5 -8q11 -11 11 -26t-11 -26q-5 -5 -11.5 -7.5t-13.5 -2.5q-15 0 -26 10q-3 3 -5 6t-3 6l-2 8q-1 3 -1 6.5
t1 7t2 6.5t3 6t5 6q5 5 11.5 8t14 3zM674 557q-40 0 -68.5 -28.5t-28.5 -68.5t28 -68q14 -14 32 -21t37 -7t36.5 7t31.5 21q28 28 28 68t-28 68q-7 7 -15 12.5t-17 9t-18 5.5t-18 2z" />
    <glyph glyph-name="uniE63A" unicode="&#xe63a;" 
d="M595 -52l-15 15l-63 -64l14 -14q7 -8 17.5 -10t21.5 2t20 12q13 13 14.5 30.5t-9.5 28.5zM582 66q-11 11 -27 11q-8 0 -15 -3t-12 -8l-100 -101q-11 -11 -11 -27t11 -27t27 -11h6l6 2q3 0 5.5 1.5t5 3.5t4.5 4l100 101q4 4 6.5 8.5t3.5 9t1 9.5t-1 9.5t-3.5 9t-6.5 8.5z
M726 726q-40 0 -75 -13.5t-56 -31.5q-68 -59 -275 -274q62 -54 117 -54h7h1q6 0 17.5 2t39 13.5t47.5 30.5l103 95l202 -210q11 12 21.5 23.5t23.5 25.5t18 21q38 45 41 118q6 98 -69 178q-71 76 -163 76zM865 222v1l-103 108v1l-112 116l-79 -73q-23 -22 -54.5 -36t-46 -16
t-24.5 -3h-9q-23 0 -46.5 8t-40.5 17.5t-33.5 22t-22.5 18.5t-10 9l-11 12l11 11q15 16 37.5 39t75 76.5t91.5 91.5q-28 28 -40 39q-21 19 -57.5 34t-79.5 18t-88.5 -11.5t-86.5 -55.5q-31 -33 -49 -68t-21.5 -71.5t6.5 -75.5t34 -78l2 -4q7 -11 27.5 -33t36.5 -39l17 -16
l61 59q10 11 23 16t27 5q30 0 50.5 -20.5t20.5 -49.5q1 -5 0 -10q4 1 8 1h8q9 0 18 -2t17 -7t15 -11q4 -4 7.5 -8.5t6 -9.5t4 -10.5t2.5 -11t1 -10.5v-8q6 1 13 1q29 0 50 -21q24 -24 21 -58q6 1 13 1q14 0 27 -5.5t23 -15.5q21 -20 21.5 -49t-19.5 -50l14 -14
q11 -11 27 -10q5 0 9 1t8 3t8 4.5t7 6.5q14 13 15 32q1 8 -1.5 15t-7.5 12l-131 135l-1 1l24 23l133 -133q11 -11 27 -10q18 1 32 15q14 13 15.5 30.5t-9.5 28.5l-131 131l10 10l13 14l135 -127v-1q7 -7 18 -9t22 2t20 13q11 12 12 30t-10 29zM498 144q-11 11 -27 11
q-4 0 -7.5 -0.5t-7 -2t-7 -4t-5.5 -4.5l-101 -101q-11 -12 -11 -27.5t11.5 -27t27.5 -11.5t27 12l100 101q11 11 11 27t-11 27zM339 273.5q0 15.5 -11.5 27t-27.5 11.5q-7 0 -14 -3t-13 -9l-100 -101q-11 -11 -11 -27t11 -27t27 -11q8 0 15 3t12 8l101 101q11 12 11 27.5z
M425 194q0 3 -1 6v4q-1 3 -2 5t-2 4.5t-2.5 4.5t-3.5 3q-11 12 -27 12q-8 0 -15 -3t-12 -9l-101 -101q-5 -5 -8 -12t-3 -15q0 -16 11.5 -27t27.5 -11t27 11l100 101q11 12 11 27z" />
    <glyph glyph-name="uniE63B" unicode="&#xe63b;" 
d="M506 617l-157 93l-280 -147l117 -120zM506 267l-320 174l-115 -136l301 -178zM509 267l139 -139l305 173l-125 140zM652 74l-145 139l-132 -140l-184 115v-109l319 -185l322 183v111zM953 563l-287 147l-157 -93l319 -174zM953 563z" />
    <glyph glyph-name="uniE63C" unicode="&#xe63c;" 
d="M930 110q-4 -81 -16 -145q-10 -61 -82 -61h-172q-47 0 -63 16q-15 14 -15 58v148h-77v-161q0 -16 1 -29.5t3.5 -24.5t5.5 -20.5t7.5 -16.5t10.5 -12q28 -31 104 -31h199q14 0 26.5 1t23.5 3t21 5.5t19 7.5t16.5 9.5t14 12t12 14.5t9.5 16.5t6.5 18.5t4.5 21q11 64 18 142
q-38 13 -77 28zM806 139h77v367h-240l112 112v70h-391q28 39 54 77l-76 29q-152 -223 -331 -343q42 -50 54 -67q34 26 69 56v-301h77v39h198q-97 -213 -388 -308q5 -4 10 -10t10 -13t10.5 -15t10.5 -16.5t11 -18.5q327 126 420 381h313v-39zM434 248h-223v187h252
q-5 -107 -29 -187zM206 506q26 26 52 54t51 59h341l-111 -113h-333zM514 248q20 83 27 187h265v-187h-292z" />
    <glyph glyph-name="uniE63D" unicode="&#xe63d;" horiz-adv-x="1025" 
d="M512 812q-104 0 -199 -40.5t-163.5 -109t-109 -163.5t-40.5 -199t40.5 -199t109 -163.5t163.5 -109t199 -40.5t199 40.5t163.5 109t109 163.5t40.5 199t-40.5 199t-109 163.5t-163.5 109t-199 40.5zM688 53q0 -5 -2 -10t-5.5 -8.5t-8.5 -5.5t-10 -2h-506q-11 0 -18.5 7.5
t-7.5 18.5q0 4 0.5 11t4 25.5t10 34.5t21 33.5t33.5 27.5q23 11 39 13t43 14l67 30v52l-2 2q-2 2 -3.5 4t-3.5 5t-4 6.5t-4 9t-3.5 11t-3 12.5t-2.5 15q-6 -2 -10.5 3t-6 11t-1.5 13q0 1 -1 9t-1 13t0.5 11t3 9t6.5 2q-3 21 -4 35.5t0 21.5q3 33 31 58.5t70 27.5
q49 -2 73.5 -26.5t27.5 -58.5q2 -14 -4 -58q4 1 6.5 -1.5t3 -9t0.5 -11.5t-1 -13t-1 -9q-1 -7 -2.5 -13t-5.5 -11t-10 -3q-3 -22 -9.5 -38t-11.5 -21l-5 -5v-52q13 -8 67 -30q27 -12 43 -14.5t38 -13.5q20 -10 34.5 -27.5t21 -33.5t10 -34.5t4 -25.5t0.5 -11zM870 27h-177
q10 2 16.5 10t6.5 19v4q0 3 -0.5 10.5t-2 15.5t-4 19t-6.5 21.5t-10 22.5t-13.5 21.5t-18.5 19t-24 15.5q-12 6 -20.5 9.5t-12 4.5t-9.5 2t-10 2v47q-18 14 -24 59q-8 -2 -12 6t-4 19q0 1 -1 8t-1 11.5t0.5 10t2.5 8.5t6 2q-5 39 -4 52q1 7 3 14t5.5 13.5t8.5 12.5
t10.5 11.5t13 10t15.5 8t17.5 5.5t19.5 3q18 -1 33 -6t25.5 -12.5t17.5 -17.5t11 -20.5t5 -21.5q1 -12 -5 -52q4 1 6.5 -2t3 -8.5t0 -10t-1 -11.5t-0.5 -8q0 -4 -1 -8l-2 -6q-1 -4 -2.5 -6.5t-4.5 -4t-6 -0.5q-2 -12 -5 -23t-6.5 -17t-6.5 -10.5t-4 -6.5l-2 -2v-47
q1 -1 4.5 -2.5t19 -8.5t37.5 -16q20 -9 30.5 -11t18.5 -4t25 -11q18 -8 31 -24t19 -31t9 -31.5t3.5 -22.5t0.5 -10v0q0 -10 -7 -17t-17 -7z" />
    <glyph glyph-name="uniE63E" unicode="&#xe63e;" 
d="M512.5 129q104.5 0 179 73t74.5 175v122q0 67 -34 124t-92.5 90.5t-126.5 33.5q-105 0 -179.5 -73t-74.5 -175v-122q0 -102 74.5 -175t179 -73zM299 499q0 86 62.5 147.5t151.5 61.5q57 0 106.5 -28t78 -76.5t28.5 -104.5v-122q0 -86 -62.5 -147.5t-150.5 -61.5
q-44 0 -83.5 16.5t-68 44.5t-45.5 67t-17 81v122zM858 156l-98 26q-8 3 -15 -1t-10 -12q-1 -4 -0.5 -8t2.5 -7.5t5 -5.5t7 -3l97 -27q73 -21 73 -67v-92q0 -14 -5 -26t-14 -21t-21.5 -14.5t-26.5 -5.5h-682q-28 0 -48 19.5t-20 47.5v92q0 7 1.5 13t7.5 16.5t22 20.5t42 17
l102 27q8 3 12 10t2 15q-2 5 -6 8.5t-8.5 5t-10.5 -0.5l-102 -27q-102 -29 -102 -105v-92q0 -44 31.5 -75t76.5 -31h682q13 0 25 3t22.5 8t20 12t16.5 16.5t12.5 20t8.5 22t3 24.5v92q0 76 -102 105z" />
    <glyph glyph-name="uniE63F" unicode="&#xe63f;" 
d="M983 759q-25 25 -71 33q-48 7 -89.5 6t-84.5 -12.5t-78 -25.5t-70 -34t-60.5 -38.5t-48.5 -38.5q-21 1 -77.5 -3.5t-104 -10t-45.5 -5.5q-66 -9 -63 -36q2 -10 9 -18l130 -129q-19 -62 -29 -112.5t-10.5 -78.5t0.5 -54t3 -38.5t-2 -31.5q-5 -25 -34.5 -32.5t-72 -5
t-93.5 -0.5q-91 -6 -90 -41q0 -14 19 -30q29 -24 137 -64q19 -10 29 -35q38 -100 61 -127q30 -37 51 -7q16 23 19 77q4 52 1 94t5 72t32 35q13 2 40.5 1t54 -3t85.5 7.5t135 32.5l130 -129l12 -8q24 -8 36 33q3 12 5 28q2 20 6 51.5t9 93t4 82.5q20 23 38.5 49t38.5 60.5
t34 69.5t25.5 78t12 85t-5.5 89q-8 46 -33 71v0v0zM882 567q-19 -18 -45 -18t-45 19t-19 45t18 44.5t44.5 18t45 -19t19 -44.5t-17.5 -45z" />
    <glyph glyph-name="uniE640" unicode="&#xe640;" 
d="M527 764q-91 0 -174 -35.5t-143 -95.5t-95.5 -142.5t-35.5 -174t35.5 -174t95.5 -142.5t143 -95.5t174 -35.5q158 0 282 100l49 47q55 61 86 138t31 162q0 92 -35.5 174.5t-95.5 142.5t-143 95.5t-174 35.5zM420 612q5 5 13 11t37 16.5t62 10.5t61 -9.5t39 -18.5l11 -10
v-111q-18 9 -55 15v51q-1 28 -56 28q-25 0 -39 -7t-15 -14l-2 -7v-51q-16 -3 -30 -6.5t-20 -5.5l-6 -3v111zM346 464l186 37l186 -37l18 -93l-204 56l-204 -56zM754 334v-130q-2 -4 -6.5 -10.5t-24 -16.5t-43.5 -10q-22 0 -41.5 11.5t-41.5 25.5t-47 17v164zM308 334l205 51
v-164q-25 -3 -47 -17t-42 -25.5t-42 -11.5q-24 0 -42.5 9t-25.5 19l-6 9v130zM792 92q-6 -4 -17 -10t-40.5 -16.5t-54.5 -10.5q-22 0 -44 14t-47.5 28t-56.5 14q-17 0 -32 -4.5t-22.5 -9.5t-19.5 -14q-5 -3 -7.5 -5t-7 -5t-8 -5t-8 -4t-9 -3.5t-10.5 -3t-12 -2t-13 -0.5
q-21 0 -40 4t-31.5 9.5t-22 11t-13.5 8.5l-4 4q-4 3 -10.5 7t-16.5 18.5t-10 30.5q0 19 14 23.5t27 -0.5l14 -4q19 -37 93 -37q25 0 44.5 8.5t30 19t30 19t44.5 8.5t44 -8.5t30 -19t30.5 -19t43.5 -8.5q70 2 93 37q3 1 6.5 2t13 3t17 1t13.5 -7t6 -18q0 -10 -4 -19.5
t-9.5 -16t-11 -11t-8.5 -6.5z" />
    <glyph glyph-name="uniE641" unicode="&#xe641;" 
d="M229 610q12 -36 35 -49.5t46 0t35 49.5q15 8 17 27q1 5 0.5 10.5t-3 10t-7.5 4.5q-2 28 -18 45.5t-46 17.5q-31 0 -47.5 -17t-18.5 -46q-14 0 -11 -25q1 -8 6.5 -16t11.5 -11zM679 610q12 -36 35 -49.5t46 0t35 49.5q6 3 11.5 11t6.5 16v11q0 5 -2.5 9.5t-8.5 4.5
q-1 19 -8.5 33t-22 22t-35.5 8q-59 0 -64 -63q-13 0 -10 -25q0 -4 2 -8.5t4.5 -8t5 -6.5t5.5 -4zM822 550l-28 6l-57 -114l-57 114l-27 -6q-7 -1 -13.5 -4t-12.5 -6.5t-11 -8t-9.5 -9.5t-7.5 -11l-82 -178q-1 -2 -2 -2.5t-3 -0.5q-3 0 -5 3q-13 28 -35 76.5t-34 74.5l-13 27
q-8 15 -22 25t-32 14l-27 6l-57 -114l-57 114l-28 -6q-28 -6 -46 -27.5t-18 -48.5v-210q0 -21 15 -35.5t36 -14.5v-312q0 -13 7 -25t18.5 -19t25.5 -7h94q21 0 35.5 15t14.5 36v502q0 2 1.5 3.5t3.5 2.5q5 1 7 -4l84 -182q10 -20 32.5 -20t31.5 20l84 182q2 5 7 4
q2 -1 3.5 -2.5t1.5 -3.5v-502q0 -21 14.5 -36t36.5 -15h93q6 0 11.5 1.5t10.5 4t9.5 6t8 8t6 9.5t4 10.5t1.5 11.5v312q21 0 36 14.5t15 35.5v210q0 27 -18 48.5t-46 27.5z" />
    <glyph glyph-name="uniE642" unicode="&#xe642;" 
d="M643 373l-119 -113l14 -13l118 113zM551 234l14 -13l119 113l-14 13zM615 399l-118 -113l13 -13l119 113zM897 -81v799q0 7 -3.5 12.5t-8 8.5t-9 5.5t-8.5 2.5l-3 1h-643q-19 0 -34.5 -5.5t-25 -13.5t-17 -18.5t-10.5 -20.5t-5 -18.5t-2 -13.5v-6v-767q0 -13 9.5 -22.5
t23.5 -9.5h602q14 0 23.5 9.5t9.5 22.5h67q34 0 34 34zM657 250q-36 -35 -78.5 -48t-71.5 0l-7 -7l23 -22l8 7l121 -115l-57 -54l-121 115l8 8l-23 22l-12 -12l12 -12l-131 -125l-54 52l131 126l12 -13l12 12l-56 54q-14 -13 -27.5 -19.5t-20.5 -6.5h-7l-118 113l123 118
l118 -113q0 -1 0.5 -2.5t-0.5 -7t-3.5 -11t-8.5 -14.5t-15 -18l56 -54l8 8q-14 27 -0.5 68t50.5 75q42 41 91 51.5t76 -15.5q18 -17 19 -44.5t-14 -58t-43 -57.5zM831 654v-719q-1 -2 -3 -5.5t-10.5 -9.5t-21.5 -6v249v456q0 13 -9.5 22.5t-23.5 9.5h-569q0 10 8.5 18
t17.5 12l8 3h568q16 0 24.5 -7.5t9.5 -14.5z" />
    <glyph glyph-name="uniE643" unicode="&#xe643;" 
d="M398.5 62q-7.5 0 -13 5.5t-5.5 12.5v487q0 4 1.5 7.5t4 6t6 4t7.5 1.5q7 0 12.5 -5.5t5.5 -13.5v-487q0 -7 -5.5 -12.5t-13 -5.5zM634 62q-5 0 -9.5 2.5t-7 6.5t-2.5 9v487q0 8 5.5 13.5t13.5 5.5q5 0 9.5 -2.5t7 -7t2.5 -9.5v-487q0 -3 -1 -5.5t-3 -5t-4 -4.5t-5 -2.5
t-6 -0.5zM711 -90q-7 0 -12 4q-18 14 -47.5 20t-50.5 6h-28h-40h-299h-1q-27 2 -43 20t-15 46v641q0 8 5.5 13.5t13.5 5.5t13.5 -5.5t5.5 -13.5v-642v-2q-1 -12 5 -19q5 -6 16 -6h299l40 -1h28q10 0 24.5 -1t46 -9t50.5 -23q6 -5 7 -12.5t-4 -14.5t-14 -7zM799 -60h-24
q-5 0 -9.5 2.5t-7 7t-2.5 9.5q0 7 5.5 12.5t13.5 5.5h22l2 1q11 0 16 6q7 8 6 19v2v642q0 8 5 13.5t13 5.5h50v0q7 0 7 7v92q0 3 -2 5t-5 2h-215q-41 0 -71 32l-1 1q-7 8 -17.5 12.5t-24.5 5.5h-87q-27 -1 -42 -18v-1q-31 -33 -72 -32h-215q-6 0 -6 -7v-92q0 -7 7 -7v0h49
q8 0 13.5 -5.5t5.5 -13.5q0 -4 -1.5 -7t-4 -6t-6 -4t-7.5 -1h-49q-19 -1 -32 12q-13 12 -13 32v92q0 12 6 22t16 16t22 6h215h1q24 0 43 21q26 29 69 30h1h87h1q44 -1 69 -30q19 -21 44 -21h215q18 0 31 -13t13 -31v-92q0 -11 -3.5 -19t-9.5 -13q-5 -5 -12.5 -8t-11.5 -4
t-8 0h-30v-623q2 -28 -15 -46q-15 -18 -40 -20h-2h-2z" />
    <glyph glyph-name="uniE644" unicode="&#xe644;" 
d="M514 -82q-56 0 -91 15q-3 1 -5.5 3.5t-4 6t-1.5 6.5q-1 5 -1 9v13l-3 42q0 8 -2 10q-7 3 -23 8q-5 2 -8 3t-7 2.5t-7 3.5l-6 2l-7 4q-9 5 -13 6q-2 1 -4 0.5t-5 -2.5l-6 -4l-7 -8q-2 -1 -3 -2l-2 -2q-2 -2 -3 -4l-29 -25q-10 -9 -22 -2q-19 12 -36 25t-29.5 25t-23 24.5
t-16.5 21t-11 17.5t-6 12l-3 5q-1 3 -1 6.5t1 7t4 5.5l27 31q2 1 3.5 3t3.5 4q8 9 12 13q1 4 -3 13q-1 3 -4 10q-2 2 -2.5 3.5t-1.5 3.5l-2 4q-1 2 -1 4q-3 6 -6 17q-6 22 -11 23q-16 5 -50 6h-8q-2 0 -6 0.5t-8 0.5q-6 0 -10.5 4t-5.5 10q-8 30 -10 59.5t-1 49t5 37.5t6 24
t3 10q5 11 16 11l75 4q6 19 14.5 37.5t18.5 35.5l-52 59q-9 10 -2 21q16 27 35.5 49.5t34 35.5t30 23t21.5 13t9 4q11 5 19 -3l60 -54q31 16 66 26l4 81q0 4 1.5 7t4 5.5t5.5 3.5q3 2 9.5 4t24.5 5.5t37.5 5t49 -1t59.5 -9.5q13 -3 14 -17l5 -85q35 -11 68 -28l62 57
q9 8 20 3q3 -1 9 -4t21.5 -13t30 -23t34 -35.5t35.5 -49.5q3 -5 2.5 -11t-4.5 -10l-58 -65q9 -16 16 -33t13 -34l85 -4q11 0 16 -11q1 -4 3 -10t6 -24t5 -37.5t-1 -49t-10 -59.5q-1 -4 -3.5 -7t-6 -5t-7.5 -2l-83 -6q-10 -36 -27 -70l54 -60q4 -4 5 -9t-1 -10
q-5 -10 -15 -26q-4 -6 -11.5 -7.5t-13.5 2.5t-7.5 11.5t2.5 13.5q1 2 2 3l2 4q1 1 2 3l-55 60q-9 10 -3 22q8 13 14 27t11 28.5t9 29.5q3 13 16 14l84 5q15 74 -2 134l-85 4q-13 1 -17 14q-12 43 -35 82q-7 11 2 21l57 65q-41 63 -95 93l-64 -57q-9 -9 -21 -2q-39 22 -83 34
q-12 3 -13 17l-6 84q-30 7 -59 7.5t-45 -2t-30 -6.5l-4 -82q0 -6 -3.5 -10.5t-9.5 -6.5q-22 -5 -42.5 -13t-39.5 -19q-12 -6 -21 3l-60 53q-55 -32 -95 -93l51 -58q9 -11 2 -22q-26 -42 -39 -89q-4 -12 -17 -13l-75 -4q-17 -60 -2 -133q2 0 7 -1h15q5 0 13.5 -1t16 -2.5
t14.5 -3.5q12 -3 20 -12.5t10.5 -16.5t5.5 -19q3 -9 4 -13l7 -14q3 -7 5 -10q5 -12 5.5 -22.5t-1.5 -17t-7 -11.5q-2 -2 -4.5 -5t-4 -5t-4.5 -5q-4 -5 -7 -7l-19 -21q31 -54 94 -95l18 16l4 2l3 4q6 6 9 8.5t10 8t12 6.5t14 2.5t15 -2.5q5 -2 9 -4t9 -5q3 -1 4 -2l3 -1
q2 -1 3 -2q6 -3 19 -7q19 -6 28 -11q8 -4 12.5 -9t6.5 -11.5t3 -10t1 -9.5q1 -14 2 -43l1 -9q60 -16 133 -1l5 77q0 4 2 7.5t5 5.5t7 3q49 13 92 40q3 2 5.5 2.5t5.5 0.5t6 -1t5 -3l59 -52l3 2q6 4 15 8.5t33 10.5t51 7q8 0 13 -5.5t6 -12.5q0 -4 -1.5 -7.5t-4 -6t-6 -4
t-6.5 -1.5q-9 0 -16.5 -0.5t-14 -2t-12.5 -3t-10.5 -2.5t-8.5 -3t-7 -3t-5 -2.5t-3 -2.5h-1h-1q-8 -6 -17 -11q-5 -3 -11 -2.5t-10 4.5l-59 52q-37 -21 -78 -33l-5 -78q-1 -13 -14 -16q-45 -12 -89 -12zM517 159q-94 0 -161 67t-67 161q0 46 17.5 87.5t49.5 74.5
q67 66 161.5 66t161.5 -66.5t67 -161t-67 -161.5q-33 -32 -74.5 -49.5t-87.5 -17.5zM517.5 579q-79.5 0 -135.5 -56.5t-56 -135.5t56 -135t135 -56q52 0 96.5 25.5t70 69.5t25.5 96q0 79 -56 135.5t-135.5 56.5z" />
    <glyph glyph-name="uniE645" unicode="&#xe645;" 
d="M245.5 321q-34.5 0 -59.5 25t-25 60t25 59.5t59.5 24.5t59.5 -24.5t25 -59.5t-25 -60t-59.5 -25zM246 449q-6 0 -12 -1.5t-10.5 -4t-8.5 -6.5t-7 -9t-4.5 -10.5t-1.5 -11.5q0 -18 13 -31t31 -13t30.5 13t12.5 31q0 12 -6 22t-16 15.5t-21 5.5zM523.5 321
q-34.5 0 -59.5 25t-25 60t25 59.5t59.5 24.5t59.5 -24.5t25 -59.5t-25 -60t-59.5 -25zM523 449q-18 0 -30.5 -12.5t-12.5 -30.5t12.5 -31t30.5 -13q12 0 22 6t16 16t6 22q0 18 -13 30.5t-31 12.5zM801 321q-35 0 -59.5 25t-24.5 60t24.5 59.5t59.5 24.5t60 -24.5t25 -59.5
t-25 -60t-60 -25zM801 449q-18 0 -30.5 -12.5t-12.5 -30.5t12.5 -31t30.5 -13q5 0 9 1t8 2.5t7.5 4t6.5 5.5t5.5 6.5t4 7.5t2.5 8t1 9q0 18 -13 30.5t-31 12.5z" />
    <glyph glyph-name="uniE646" unicode="&#xe646;" 
d="M525 385l393 395q5 5 5 12.5t-5 13t-13 5.5t-13 -5l-393 -395l-392 395q-6 5 -13.5 5t-13 -5.5t-5.5 -13t5 -12.5l393 -395l-393 -394q-5 -6 -5 -13.5t5.5 -13t13 -5.5t13.5 6l392 394l393 -394q1 -2 2.5 -3t3.5 -1.5t3.5 -1t3.5 -0.5t4.5 0.5t4.5 2t4 3.5q5 5 5 12.5
t-5 13.5z" />
    <glyph glyph-name="uniE647" unicode="&#xe647;" 
d="M858 401l-460 467q-5 6 -13 6t-13.5 -5.5t-5.5 -13t6 -12.5l447 -455l-453 -453q-6 -5 -6 -12.5t5.5 -13t13.5 -5.5t13 5l466 466q2 3 3.5 6.5t1.5 6.5t-1.5 6.5t-3.5 6.5z" />
    <glyph glyph-name="uniE648" unicode="&#xe648;" 
d="M991.5 639.5q-7.5 1.5 -14 -3t-8.5 -12.5l-14 -78q-7 20 -15 38.5t-18 36.5t-21 35t-24 33t-27.5 30.5t-29.5 28.5q-24 21 -50 38t-53.5 30.5t-57.5 23.5q-86 28 -177 22q-45 -3 -88.5 -15t-83.5 -31q-85 -41 -147 -113q-72 -82 -100 -188q-1 -5 0.5 -9.5t5 -8t8.5 -5.5
q7 -2 14 2t9 12q12 48 35 91.5t56 80.5q58 66 135 104q75 36 158.5 42t162.5 -20q82 -27 148 -84q58 -51 95 -119t48 -145q1 -8 7 -13q2 -1 4.5 -2.5t4.5 -1.5q2 -1 4 -1q15 0 18 16l30 163q2 8 -2.5 14.5t-12 8zM951 299q-5 2 -9.5 0.5t-8 -5t-5.5 -8.5q-25 -97 -91 -173
q-57 -65 -135 -103q-37 -18 -77 -28.5t-81 -13.5q-84 -6 -163 20q-82 27 -148 84q-58 51 -95 119t-47 145q-1 4 -3 7t-5 5q-4 4 -9 5q-8 1 -14.5 -3.5t-7.5 -11.5l-30 -164q-2 -7 2.5 -13.5t12.5 -8.5h3q16 0 19 16l14 78q41 -120 135 -202q72 -63 161 -92q71 -23 145 -23
h16q8 0 16 1q91 6 173 46q84 41 146 112q72 83 100 188q2 8 -2 14.5t-12 8.5zM408 507q8 0 13 5q14 14 0 27l-99 99q-3 4 -8 5t-10 0t-8.5 -5t-5 -8.5t0 -9.5t5.5 -9l98 -99q6 -5 14 -5zM637 512l98 99q4 4 5.5 9t0 9.5t-5 8.5t-8.5 5t-10 0t-8 -5l-99 -99q-6 -5 -6 -13
t5.5 -13.5t13.5 -5.5t14 5zM282 324q-3 0 -6 -1t-5 -2.5t-4 -4t-3 -5t-1 -5.5q0 -4 1.5 -7.5t4 -6t6 -4t7.5 -1.5h213v-172q0 -8 5.5 -13.5t13.5 -5.5q4 0 7.5 1.5t6 4t4 6t1.5 7.5v172h213q8 0 13.5 5.5t5.5 13.5q0 5 -2.5 9t-7 6.5t-9.5 2.5h-213v130h213q8 0 13.5 5.5
t5.5 13.5q0 19 -19 19h-464q-8 0 -13.5 -5.5t-5.5 -13.5q0 -2 1 -4.5t2 -4.5t3 -4t4 -3t4.5 -2t4.5 -1h213v-130h-213z" />
    <glyph glyph-name="uniE649" unicode="&#xe649;" 
d="M655.5 497.5q-9.5 -9.5 -9.5 -23.5t9.5 -23.5t23.5 -9.5t23.5 9.5t9 23t-10 23t-23 10t-23 -9zM510 753q-52 0 -102.5 -12t-94.5 -34t-82.5 -52.5t-69.5 -69.5t-53 -83t-33.5 -94.5t-11.5 -102.5t11.5 -102.5t33.5 -94.5t53 -83t69.5 -69.5t82.5 -52.5t94.5 -33.5
t102.5 -11.5q91 0 174 35.5t143 95t95.5 142.5t35.5 174t-35.5 174t-95.5 143t-143 95.5t-174 35.5zM688 171q-5 -35 -20 -32q-8 2 -8 5l-67 67q-51 -16 -85 -19.5t-52.5 -1t-26.5 0.5q-12 -3 -16.5 -18.5t-3 -37t0.5 -48.5q-3 -50 -23 -47q-7 2 -14 10q-12 15 -31 66
q-5 13 -15 19q-56 20 -71 33q-24 19 2 30q12 5 34 6q27 2 49 0.5t37.5 2.5t17.5 17q2 8 -0.5 26.5t1 52.5t19.5 85l-67 67l-5 8q-2 14 30 19h2q11 2 27 4l48 4q32 3 43 2q43 38 101.5 62t122.5 13q10 -2 20 -6.5t17 -10.5q12 -13 17 -37q8 -44 -4 -90.5t-30 -76.5t-40 -57
q0 -11 -2.5 -40.5t-4.5 -53.5z" />
    <glyph glyph-name="uniE64A" unicode="&#xe64a;" 
d="M512 13q-31 0 -53 22t-22 53t22 52.5t53 21.5t53 -21.5t22 -52.5q0 -44 -38 -66q-18 -9 -37 -9zM512.5 126q-15.5 0 -27 -11.5t-11.5 -27t11.5 -26.5t27 -11t26.5 11t11 26.5t-11 27t-26.5 11.5zM680 -96q-2 0 -4.5 0.5t-4.5 2.5q-41 24 -109 24h-285q-41 0 -70 29
t-29 69v727q0 13 3.5 26t10 23.5t15.5 19.5t20 15.5t24 10t26 3.5h471q11 0 22 -2.5t21 -7.5t18.5 -11.5t15 -15t11.5 -18.5t7.5 -21t2.5 -22v-727q0 -40 -29 -69t-69 -29q-8 0 -13.5 5.5t-5.5 13t5.5 13t13.5 5.5q25 0 43 18t18 43v727q0 16 -8 30.5t-22.5 22.5t-30.5 8
h-471q-17 0 -31 -8t-22.5 -22.5t-8.5 -30.5v-727q0 -25 18 -43t44 -18h285q78 0 128 -30q6 -4 8 -11t-2 -14q-5 -9 -16 -9zM590 746h-155q-3 0 -5 1t-4.5 2t-4 2.5t-2.5 3.5t-2 4.5t-1 5.5q0 5 2.5 9t7 6.5t9.5 2.5h155q18 0 18 -18.5t-18 -18.5zM705 666q5 0 9 -2.5
t6.5 -6.5t2.5 -9v-377q0 -3 -1.5 -6.5t-4 -6t-5.5 -3.5t-7 -1h-385q-5 0 -9 2t-6.5 6t-2.5 9v377q0 5 2.5 9t6.5 6.5t9 2.5h385zM705 703h-385q-23 0 -39 -16t-16 -39v-377q0 -22 16 -38t39 -16h385q23 0 39 16t16 38v377q0 9 -3 17.5t-8 15t-11.5 11.5t-15 8t-17.5 3z" />
    <glyph glyph-name="uniE64B" unicode="&#xe64b;" 
d="M814 601q0 4 -1.5 7.5t-4 6t-6 4t-7.5 1.5q-5 0 -9 -2.5t-6.5 -7t-2.5 -9.5v-54q0 -8 5.5 -13.5t13 -5.5t13 5.5t5.5 13.5v54zM814 458q0 7 -5.5 12.5t-13 5.5t-13 -5.5t-5.5 -12.5v-55q0 -7 5.5 -12.5t13 -5.5t13 5.5t5.5 12.5v55zM814 315q0 8 -5.5 13.5t-13 5.5
t-13 -5.5t-5.5 -13.5v-54q0 -8 5.5 -13.5t13 -5.5t13 5.5t5.5 13.5v54zM795 195q-5 0 -9 -2.5t-6.5 -7t-2.5 -9.5v-54q0 -2 0.5 -4.5t1.5 -3.5l2 -4l2.5 -2.5t3.5 -2.5t4 -1.5t4 -0.5q8 0 13.5 5.5t5.5 13.5v54q0 8 -5.5 13.5t-13.5 5.5zM301 556q8 0 13.5 5.5t5.5 13
t-5.5 13t-13.5 5.5h-100q-8 0 -13.5 -5.5t-5.5 -13.5q0 -5 2.5 -9t7 -6.5t9.5 -2.5h100zM623 556q8 0 13.5 5.5t5.5 13t-5.5 13t-13.5 5.5h-100q-8 0 -13.5 -5.5t-5.5 -13.5q0 -5 2.5 -9t7 -6.5t9.5 -2.5h100zM627 221q6 0 11 3q6 4 7.5 11.5t-2.5 13.5l-92 136h75
q7 0 12.5 5.5t5.5 13t-5.5 13t-12.5 5.5h-296l32 48h264q7 0 12.5 5.5t5.5 13t-5.5 13t-12.5 5.5h-239l69 103q5 6 3.5 13.5t-8 11.5t-14 3t-11.5 -8l-83 -123h-153q-7 0 -12.5 -5.5t-5.5 -12.5q0 -4 1.5 -7.5t4 -6t5.5 -4t7 -1.5h128l-32 -48h-96q-7 0 -12.5 -5.5t-5.5 -13
t5.5 -13t12.5 -5.5h71l-91 -136q-3 -4 -3.5 -9t2 -9t6.5 -7t10 -3q10 0 15 8l105 156h202l105 -156q3 -4 7 -6t8 -2zM457 189q-7 0 -12.5 -5.5t-5.5 -13t5.5 -13t12.5 -5.5h68q5 0 9.5 2.5t7 6.5t2.5 9v150q0 5 -2.5 9t-7 6.5t-9.5 2.5h-162h-72q-8 0 -13.5 -5.5t-5.5 -13
t5.5 -13t13.5 -5.5h38l-85 -126q-3 -5 -3.5 -9.5t1.5 -9t7 -7.5q4 -3 10 -3q10 0 15 8l99 147h134v-112h-50zM985 489q13 4 13 17v234q0 16 -11 27t-26 11h-903q-15 0 -26 -11t-11 -27v-684q0 -16 11 -27t26 -11h664h1q51 0 78 -24q6 -4 13 -4q3 0 7 1.5t6 4.5q5 6 4.5 13.5
t-5.5 12.5q-18 15 -44 23.5t-38.5 9t-21.5 0.5h-664v1v684v1h719v-1v-54q0 -2 0.5 -4.5t1.5 -3.5l2 -4l2.5 -2.5t3.5 -2.5t4 -1.5t4 -0.5q3 0 5.5 1t4.5 2t3.5 2.5t2.5 4t2 4.5t1 5v54v1h147q1 0 1 -1v-221q-38 -15 -62 -47q-15 -19 -22.5 -41.5t-7.5 -46.5q0 -16 3.5 -31.5
t10 -30t16.5 -26.5q24 -33 62 -48v-192q0 -1 -1 -1h-78q-4 0 -7.5 -1.5t-6 -4t-4 -6t-1.5 -6.5q4 -16 19 -19h78q15 0 26 11t11 27v205q0 14 -13 18q-35 10 -56.5 39t-21.5 66q0 14 3.5 28t10.5 25.5t16.5 21.5t21.5 17.5t26 12.5z" />
    <glyph glyph-name="uniE64C" unicode="&#xe64c;" 
d="M984 5l-188 -38l-126 -140l-135 230h-7q-11 -1 -16 -1l-23 1l-135 -230q-7 8 -19.5 21.5t-45.5 50.5t-61 68l-188 38l147 251q-37 75 -37 157q0 97 48.5 179t132 130t181.5 48t181.5 -48t132 -130t48.5 -179q0 -82 -37 -157zM677 -66q5 5 14 13t32 30.5t42 40.5
q17 5 35.5 10.5t33.5 9.5t27 7.5t19 5.5l6 2l-85 145q-25 -32 -56 -58t-68 -44.5t-78 -28.5zM138 53q61 -18 121 -35q43 -41 88 -84l78 133q-124 30 -202 131zM512 711q-80 0 -148 -39.5t-107.5 -107t-39.5 -148.5q0 -122 86.5 -208.5t208.5 -86.5q80 0 148 39.5t107 107.5
t39 148q0 123 -86 209t-208 86zM512 210q-86 0 -146 60.5t-60 146t60 146t146 60.5q56 0 103.5 -28t75 -75.5t27.5 -103.5q0 -28 -7.5 -54.5t-20.5 -49.5t-32 -42t-41.5 -32t-49.5 -20.5t-55 -7.5zM512 564q-40 0 -74 -20t-53.5 -54t-19.5 -74q0 -61 43 -104t104 -43t104 43
t43 104q0 24 -7.5 46.5t-21 41t-31.5 32t-40.5 21t-46.5 7.5z" />
    <glyph glyph-name="uniE64D" unicode="&#xe64d;" 
d="M883 812h-541q-55 0 -93 -38.5t-38 -93.5v-758q0 -26 -23.5 -45t-50.5 -19h-2q-27 0 -45.5 18.5t-18.5 45.5v479q0 14 -10.5 24.5t-25 10.5t-24.5 -10.5t-10 -24.5v-479q0 -36 18 -67t48.5 -49t67.5 -18h2q56 0 99.5 39.5t43.5 94.5v758q0 10 3 20t9 18t13.5 14t17 9
t19.5 3h541q27 0 49 -19t22 -45v-758q0 -26 -22 -45t-49 -19h-519q-15 0 -25 -10.5t-10 -24.5q0 -7 2.5 -13.5t7.5 -11t11.5 -7.5t13.5 -3h519q56 0 98.5 39.5t42.5 94.5v758q0 55 -42.5 93.5t-98.5 38.5zM402 533h425q14 0 24 10t10 24.5t-10 24.5t-24 10h-425
q-14 0 -24.5 -10t-10.5 -24.5t10.5 -24.5t24.5 -10zM402 370h425q7 0 13.5 2.5t11 7.5t7 11.5t2.5 13.5q0 14 -10 24.5t-24 10.5h-425q-7 0 -13.5 -3t-11 -7.5t-7.5 -11t-3 -13.5q0 -10 4.5 -18t12.5 -12.5t18 -4.5zM402 207h425q7 0 13.5 2.5t11 7.5t7 11.5t2.5 13.5
q0 14 -10 24.5t-24 10.5h-425q-10 0 -18 -5t-12.5 -13t-4.5 -17.5t4.5 -17.5t12.5 -12.5t18 -4.5zM402 44h425q5 0 10.5 1.5t9.5 5t7.5 7.5t5 9.5t1.5 11.5q0 14 -10 24.5t-24 10.5h-425q-14 0 -24.5 -10.5t-10.5 -24.5q0 -10 4.5 -18t12.5 -12.5t18 -4.5z" />
    <glyph glyph-name="uniE64E" unicode="&#xe64e;" 
d="M1018 289q0 -60 -13.5 -117t-38.5 -107t-60 -94t-79 -79t-94 -60t-107 -38.5t-116 -13.5q-104 0 -198 40.5t-162 108.5t-108.5 162t-40.5 197.5t40.5 197.5t108.5 162t162 108.5t197.5 40.5t197.5 -40.5t162 -108.5t108.5 -162t40.5 -197zM190 326q26 -22 56 -49l29 33
q-27 23 -58 48zM196 146q21 -6 44 -13q17 50 34 120q-21 6 -43 15q-18 -73 -35 -122zM202 408q35 -30 51 -46l30 32q-24 20 -55 43zM279 315h89v-40h-77v-145h44v16h112v-16h43v145h-77v40h90v38h-90v40q41 2 79 5l-5 37q-97 -9 -203 -11q4 -20 5 -36l79 3v-38h-89v-38z
M447 184h-112v53h112v-53zM602 273q11 -27 23 -59q-24 -2 -53 -3q17 44 32 89h61v41h-147v-41h40q-25 -86 -41 -100l20 -38q10 4 30 6l88 8q-7 -11 -17 -20q21 -13 39 -27q22 25 35 56t17.5 62t5.5 102h42q-1 -62 -2 -104t-2 -49t-6 -10q-1 -1 -2.5 -2t-3.5 -1.5t-4 -0.5h-4
h-11q-5 0 -11 0.5t-13 0.5q6 -23 11 -48q47 1 57.5 4t17.5 10q3 4 5.5 8t3.5 8q2 10 3 46l4 180h-84l1 54h-43v-54h-33v-42h32q0 -105 -21 -145l-34 80zM654 421h-122v-40h122v40z" />
    <glyph glyph-name="uniE64F" unicode="&#xe64f;" 
d="M513 468q-33 0 -63.5 -13t-52.5 -35t-35 -52.5t-13 -64.5q0 -67 48 -115.5t116 -48.5t116.5 48.5t48.5 116t-48.5 116t-116.5 48.5zM513 193q-45 0 -77.5 32.5t-32.5 78t32.5 77.5t78 32t77.5 -32t32 -78q0 -22 -8.5 -42.5t-23.5 -35t-35 -23.5t-43 -9zM861 425h-16l-1 4
l-4 -2l4 3q-3 6 -4.5 10.5t-3.5 8.5l-2 3l12 11q32 33 32 79t-32 79l-15 15q-11 10 -23.5 17.5t-26.5 11t-29 3.5q-46 0 -79 -32l-11 -12l-3 2l-10 4q-5 2 -11 4l-3 1v16q0 46 -32.5 79t-78.5 33h-21q-46 0 -79 -33t-33 -79v-16l-3 -1q-11 -4 -20 -8l-3 -2l-11 12
q-8 8 -17.5 14t-19.5 10t-20.5 6t-21.5 2q-23 0 -43 -8.5t-36 -23.5l-15 -15q-33 -33 -33 -79t33 -79l11 -11l-1 -3q-2 -4 -4 -8.5t-4 -10.5l-2 -5h-16q-46 0 -78.5 -32.5t-32.5 -78.5v-21q0 -46 32.5 -79t78.5 -33h16l2 -4q2 -6 4 -10.5t4 -8.5l1 -3l-11 -11
q-16 -16 -24.5 -36.5t-8.5 -42.5q0 -46 33 -79l15 -15q33 -33 79 -33t79 33l11 11l3 -1q4 -2 9.5 -4t10.5 -4l3 -2v-16q0 -46 33 -78.5t79 -32.5h21q46 0 78.5 32.5t32.5 78.5v16l3 2l6 2l6 2l4 2q3 1 5 2l3 1l11 -11q33 -33 79 -33t79 33l15 15q32 33 32 79t-32 79l-12 11
l2 3q3 7 8 19l-5 2h5l1 2h16q46 0 79 33t33 79v21q0 46 -33 78.5t-79 32.5zM916 343zM783 610zM111 263zM206 35zM472 -98zM553 -99zM919 293q0 -6 -2 -11q0 -1 -1 -4v-2q-1 -3 -2 -5q0 -1 -3 -5v-1q-1 -2 -2 -3q-1 -3 -5 -7l-1 -1l-7 -7q-7 -4 -14.5 -7t-14.5 -4h-2h-4h-56
l-1 -4q-10 -43 -35 -83l-2 -3l40 -41q7 -6 11 -14.5t5 -18.5q1 -3 1 -5v-4v-3l-1 -7q0 -1 -1 -3l-1 -2v-1l-1 -4q-1 -2 -1.5 -2.5t-1.5 -3.5l-1 -1l-2 -3q-3 -5 -7 -9l-15 -14l-4 -4l-4 -4q-1 0 -3 -1l-1 -1l2 -4l-4 3q-2 -1 -4 -1.5t-5 -1.5l2 -5l-3 4h-1l-3 -1
q-2 0 -3.5 -0.5t-3.5 -0.5h-5h-2h-2q-2 0 -4 1q-19 2 -33 16l-40 40l-3 -2q-40 -25 -83 -36h-4v-56v-4v-2q-2 -16 -12 -29q-3 -4 -6 -7l-2 -2q-2 -1 -3.5 -2t-2.5 -3q-1 0 -3 -1l-2 -1l-5 -2q-1 -1 -5 -2l-2 -1q-2 0 -3 -1q-6 -1 -11 -1h-21q-6 0 -11 1q-1 1 -2 1h-2l-2 1
l-5 2q-2 0 -5 2l-1 1h-1q-1 1 -2 1q-4 3 -7 6l-1 1q-2 1 -3.5 3t-3.5 4q-10 13 -11 29v2v4v56l-4 1q-43 10 -83 35l-4 2l-40 -41q-13 -13 -33 -16h-7h-5q-2 0 -4 0.5t-4 0.5l-2 1h-2l-1 -4v5l-5 2q-1 0 -5 2l-1 1q-2 1 -3 1q-5 4 -9 7l-15 15q-4 5 -7 9q0 1 -2 3l-1 2
q-1 3 -2 5l-1 5l-1 2q-1 2 -1 3q-1 2 -1 9v1v5v5q3 19 16 32l41 41l-2 3q-25 40 -36 83v4h-57h-3l-1 -5l-1 5q-8 1 -15.5 4t-14.5 8q-1 1 -3 2.5t-3 3.5q-1 0 -2 2q-3 3 -5 6q0 1 -1 2l-4 -2l3 4v1h-1l-2 4l-1 6l-1 2l-1 3l-1 11v21q0 6 1 11q0 1 1 4l1 2l1 5q1 1 3 5l1 1
q1 2 1 3q1 1 2 2.5t1 2.5l3 2l1 1q2 3 7 7q13 9 29 11h2h3h56l1 4q6 21 14.5 42t21.5 41l2 3l-41 41q-13 13 -16 33v9v2q0 6 1 8l1 3l1 3l1 4l2 5l1 1l-4 2l5 -1q1 2 1 3q3 4 7 8l15 15q4 4 9 7l2 2h1l2 1q3 2 4 3l5 1l3 1q2 1 3 1q2 0 8 1h2h1h4q2 0 5 -1q19 -2 32 -16
l40 -40l4 2q20 12 41 21t42 14l4 1v56v4v1q2 17 12 30q3 4 6 7q0 1 2 1q4 4 6 5l2 2h1l1 1h1q2 2 4 2.5t5 1.5l2 1h4q2 1 5 1.5t6 0.5h21q5 0 11 -2q1 0 3 -1h3l5 -2q1 0 4 -2l1 -1h2l2 -2l7 -5q0 -1 1 -1q3 -3 7 -8q3 -4 5 -8.5t3.5 -9.5t2.5 -11v-1v-4v-56l4 -1
q43 -10 83 -35l3 -2l41 40q13 14 33 16q4 1 7 1h2h2l8 -1q1 -1 2 -1h2l1 -1q4 -1 5.5 -1.5t5.5 -2.5l1 -1q2 -1 3 -2q2 -1 4 -3l4 -4l15 -15q4 -4 7 -8q1 -1 2 -4l1 -1q0 -1 1 -1q1 -3 2 -4q0 -2 1 -5l1 -2l1 -3q0 -3 1 -8v-1v-1v-4q0 -3 -1 -6q-2 -19 -16 -33l-40 -40l2 -3
q12 -20 21 -41t14 -42l1 -4h56h4h1q9 -1 16.5 -4t13.5 -8l7 -6l2 -2q3 -4 5 -6q0 -1 1 -3v-1l1 -1q2 -3 2 -4l2 -5l1 -3q0 -2 1 -3q1 -6 1 -11v-21z" />
    <glyph glyph-name="uniE650" unicode="&#xe650;" horiz-adv-x="1072" 
d="M984 715q-51 54 -105 75.5t-104 21.5q-52 0 -97.5 -17.5t-72.5 -41.5q-25 -21 -69 -64q-16 16 -28 27t-19 18q-29 25 -74 43t-99.5 24t-115.5 -15.5t-110 -71.5q-28 -28 -47.5 -59t-29.5 -64q-18 -54 -11 -112q8 -67 50 -136q1 -3 2 -4q22 -39 98 -105l-20 -21
q-24 -23 -23.5 -56t23.5 -56t56 -23q9 0 18 2q-1 -6 -1 -11q0 -33 23.5 -56.5t56.5 -23.5l14 2v-9q0 -33 23.5 -56t55.5 -23h6q2 0 4.5 0.5t5.5 0.5q-1 -5 -1 -9q0 -16 6 -30.5t18 -25.5q23 -23 56 -23q22 0 41 12l18 -18q10 -11 24 -16.5t30 -5.5q17 0 33.5 7t29.5 20
q33 32 27 75h10h5q34 2 59 27t28 59v8q0 3 -1 7q5 -1 9 -1l5 1q34 2 60 27q32 32 26 76l12 -1q37 0 65 27v1q24 25 24.5 60t-21.5 58l-15 15q22 23 43.5 46.5t31.5 36.5q20 24 36 65t18 88q1 10 1 20t-1.5 21.5t-3 23.5t-5.5 25t-8.5 26t-11.5 27t-15 27t-19 27.5t-24 27.5z
M158 127q-13 12 -13 30t13 30l112 113q12 12 30 12t30.5 -12t12.5 -30t-13 -30l-112 -113q-3 -3 -6.5 -5.5t-7 -4t-8 -2.5t-8.5 -1q-9 0 -16.5 3.5t-13.5 9.5zM254 38q-12 13 -12 30.5t12 30.5l112 113q6 6 14 9t16 3q18 0 31 -12q6 -6 9 -14t3 -16q0 -18 -12 -31l-112 -112
q-13 -13 -30 -13q-6 0 -11.5 1.5t-10.5 4t-9 6.5zM348 -48q-3 3 -5.5 6.5t-4 7t-2 8t-0.5 8.5q0 9 3 16.5t9 13.5l112 113q13 13 30.5 13t30 -12.5t12.5 -30.5t-12 -30l-112 -113q-13 -13 -31 -13q-17 1 -30 13zM473 -148q-18 0 -31 13q-3 3 -5 6.5t-4 7.5t-2.5 8t-0.5 8
q0 9 3 16.5t9 13.5l112 113q13 13 30.5 13t30 -12.5t12.5 -30.5t-12 -30l-112 -113q-3 -3 -6.5 -5.5t-7.5 -4t-8 -2.5t-8 -1zM623 -159q-14 -15 -33.5 -16.5t-31.5 11.5l-17 16l71 71l17 -16q12 -13 10.5 -32t-16.5 -34zM928 146q-15 -15 -34.5 -16.5t-32.5 10.5v1l-150 142
l-15 -16l-11 -11l146 -146q12 -12 10.5 -31.5t-16.5 -34.5q-16 -16 -36 -17q-19 -1 -31 11l-149 149l-26 -26l2 -1l145 -150v-1q12 -12 11 -30q-1 -21 -16.5 -36t-35.5 -17q-19 -1 -31 11l-16 16q22 24 21.5 56.5t-23.5 54.5q-23 23 -56 23h-7q-4 0 -8 -1q5 38 -23 65
q-4 5 -9 8.5t-10.5 6.5t-11.5 4.5t-12 2.5t-13 1t-15 -1q1 2 1 5v4q0 33 -23.5 56t-56.5 23q-8 0 -17 -2v11q0 5 -0.5 9t-1.5 8.5t-2.5 8.5t-3.5 8l-4 8q-2 4 -5 7.5t-6 6.5q-8 8 -17 13t-19 7.5t-20.5 2.5t-20.5 -2.5t-19 -8t-16 -12.5l-72 -72l6 6q-24 20 -53 49.5
t-39 48.5q-1 0 -2 1l-1 3q-54 88 -45.5 171.5t78.5 155.5q81 83 196 75q33 -2 64.5 -11.5t52.5 -21.5t35 -25q14 -12 46 -43q-44 -44 -103 -103.5t-83 -84.5t-42 -44l-12 -12l12 -13l10 -10q7 -7 25.5 -21t37.5 -25t45.5 -19.5t51.5 -8.5h6h5q11 1 27 3.5t51 17.5t61 40
l89 82l124 -130l115 -122q13 -12 12 -32.5t-14 -34.5zM1035 492q-2 -41 -15.5 -76.5t-30.5 -55.5q-9 -11 -29.5 -33.5t-41.5 -45.5l-226 236l-115 -107q-14 -14 -31 -24t-30.5 -15t-27.5 -8t-19.5 -3.5t-7.5 -0.5h-1q-4 -1 -8 -1q-35 0 -69.5 19t-61.5 42q232 240 308 306
q23 20 62 35t84 15q103 0 182 -85q47 -50 63.5 -101t14.5 -97zM1035 492z" />
    <glyph glyph-name="uniE651" unicode="&#xe651;" 
d="M512 730q117 0 216 -57.5t156.5 -156.5t57.5 -216q0 -165 -110 -287q-107 -119 -265 -140q-28 -3 -55 -3q-117 0 -216 57.5t-156.5 156.5t-57.5 216q0 87 34 167t91.5 137.5t137.5 91.5t167 34zM512 812q-139 0 -257 -68.5t-186.5 -186.5t-68.5 -257t68.5 -257
t186.5 -186.5t257 -68.5t257 68.5t186.5 186.5t68.5 257t-68.5 257t-186.5 186.5t-257 68.5zM328 587q-12 0 -20 -59t-10 -143.5t0 -169t10 -143.5t20 -59q21 0 153 61.5t258 133t126 92.5t-126 92.5t-258 133t-153 61.5z" />
    <glyph glyph-name="uniE652" unicode="&#xe652;" horiz-adv-x="1025" 
d="M292 388q4 -20 16 -33q12 -12 30 -15q4 -1 8.5 -1t9.5 0.5t10 2t11 3.5l-79 80q-9 -18 -6 -37zM531 316q-20 2 -47 -13l89 -90q14 21 12 44.5t-19 40.5q-15 16 -35 18zM910 324l-471 429q-5 5 -23 8.5t-43 6t-58.5 3.5t-66 1.5t-69.5 0t-64 -0.5l-54 -2q-27 0 -36 -0.5
t-14 -0.5q-25 -464 1 -468l466 -447q15 -15 35 -20.5t40 0t35 20.5l294 331q18 21 29.5 38t19.5 36.5t2.5 36t-23.5 28.5zM93 558q-24 24 -24 58t23.5 58t57 24t57.5 -24q16 -16 21.5 -37t0 -42.5t-21.5 -36.5q-9 -10 -20.5 -16t-24 -7.5t-25 0t-24 7.5t-20.5 16zM633 86
l-42 42q-8 -7 -17.5 -13t-18.5 -10t-18.5 -7t-19 -4t-19.5 -1q-24 0 -49.5 9.5t-51.5 28.5l53 67q22 -15 45 -18t42 3l-96 97q-57 -33 -103.5 -27.5t-83.5 42.5q-37 38 -39 87q-1 25 7.5 48.5t25.5 45.5l-22 22l33 34l22 -23q41 32 82 33q21 1 41.5 -6t40.5 -21l-50 -66
q-16 11 -32 13t-31 -4l88 -90q70 40 113 36q22 -2 42 -12t38 -29q41 -42 45 -95q1 -11 0 -22t-4 -21.5t-7 -21t-10 -20.5t-14 -21l43 -43zM980 368l-400 383q-6 4 -13.5 8t-15.5 6t-16.5 3t-16 1.5t-13.5 1t-9 -0.5h-3l440 -418q16 -10 25.5 -22.5t12.5 -25t3 -25t-3 -23
t-6 -19t-5 -13.5l-3 -4l-273 -307q-64 -74 -63 -77q15 -8 25 -8.5t18.5 5t21.5 18.5l296 332q30 43 38 75.5t-2 58t-38 51.5z" />
    <glyph glyph-name="uniE653" unicode="&#xe653;" horiz-adv-x="1071" 
d="M500 812h-10h-12q-12 -1 -19.5 -9t-7.5 -19.5t9 -19t20 -7.5q6 1 11 1h9q105 0 200 -39.5t163.5 -106t109.5 -158.5t41 -193q0 -126 -61 -234.5t-165 -176.5q-10 -7 -12 -18t4 -20q8 -12 23 -12h3h4l2 2q2 0 4 1t3 2q76 49 132 119t87.5 157t31.5 180q0 112 -45 214
t-121.5 176t-182 117.5t-221.5 43.5zM526 284h2h1h1h126q2 0 3.5 0.5t2 2t0.5 3.5v133q0 3 -4 5q-1 0 -3 1h-127q-6 0 -6 -8v-131v-1v-3v-1q1 -1 4 -1zM483.5 722q-98.5 0 -188 -37t-154 -99.5t-103 -149t-38.5 -181.5q0 -76 24.5 -147.5t69 -128.5t104 -100.5t133.5 -67
t152 -23.5q99 0 188.5 37t154 99.5t103 149t38.5 181.5t-38.5 181.5t-103 149t-154 99.5t-188 37zM393 179q-2 2 -4 4.5t-4 5.5v-166v-1q-1 -12 -9 -20.5t-27 -10.5h-1q-35 3 -35 32v119q-4 -8 -7.5 -15.5t-7 -14.5t-7.5 -13q-14 -19 -33 -19q-2 0 -5 0.5t-6 1.5l-6 2l-1 1
q-29 15 -11 49q49 78 78 182h-51q-32 0 -32 36q1 17 10.5 26t25.5 10h53v46q-9 -2 -21 -3h-1h-21q-6 -1 -10 -1q-31 0 -36 27v1q0 35 38 43h18q39 4 69 8.5t49 9.5h1h8q14 0 23.5 -7t13.5 -21l1 -1v-1q1 -16 -7.5 -26.5t-25.5 -13.5q-5 -2 -9.5 -3t-8.5 -2h-9v-56h35
q9 -1 16 -5t11 -14v80q-2 27 10 40t36 12h187q31 1 45 -14q12 -13 11 -38v-190v-7q0 -4 -0.5 -7.5t-1.5 -6.5l-2 -6q-1 -3 -2.5 -5.5t-3.5 -4.5q-10 -10 -30 -10h-7h-201h-3q-9 0 -16 2.5t-11 7.5q-12 12 -11 37v75q-7 -18 -28 -18h-34v-9q2 -2 3 -4t3 -4t3.5 -4t2.5 -4
q15 -18 25.5 -31.5t17 -21.5t8.5 -11v-1q18 -32 -5 -54v-1q-6 -4 -11 -6t-11 -2q-15 0 -28 16zM568 146q-14 -24 -29.5 -48t-34 -47t-39.5 -45q-16 -13 -31 -13q-8 0 -15 2.5t-14 7.5v1q-24 26 4 53q46 46 90 125q14 23 34 23q9 0 19 -5h1q16 -10 19.5 -23.5t-4.5 -30.5z
M738 9h-1q-7 -3 -14 -3q-9 0 -16.5 5.5t-13.5 15.5q-48 79 -83 125q-10 14 -8 26q2 13 18 24q8 5 17 6t18 -2.5t17 -10.5l1 -1q16 -20 30.5 -41.5t28 -45.5t26.5 -49q5 -15 0 -27.5t-20 -21.5z" />
    <glyph glyph-name="uniE654" unicode="&#xe654;" horiz-adv-x="1025" 
d="M337 451q-36 15 -47 24q-5 5 -8 11.5t-3 15t4 15t11 11.5q5 4 11 6t13 3.5t14 1.5q40 0 71 -20v47q-30 12 -65 12v44h-40v-49q-7 -1 -13.5 -3.5t-12.5 -6t-12 -7.5q-31 -22 -31 -59q0 -26 14 -44.5t60 -36.5q38 -15 51 -25t13 -26q0 -38 -58 -38q-21 0 -41 6.5t-39 20.5
v-51q29 -15 69 -16l1 -35h40v39q28 5 47 18q31 22 31 61q0 27 -16.5 45.5t-63.5 35.5zM967 403l-69 16v-202q0 -30 -21 -51.5t-52 -21.5h-89l-28 -122q-3 -13 -14 -20t-24 -4l-501 114q-10 3 -17 11.5t-7 18.5h-33q-2 0 -4.5 0.5t-4.5 0.5q0 -25 16 -45.5t41 -25.5l695 -159
q15 -4 29.5 -1t26 10.5t20.5 19.5t12 26l79 347q7 30 -9 55.5t-46 32.5zM861 260l-1 356q0 30 -21.5 51.5t-52.5 21.5l-713 -2q-30 0 -51.5 -21.5t-21.5 -51.5l1 -356q0 -28 18.5 -48.5t45.5 -24.5l722 1q31 0 52.5 22t21.5 52zM588 228l-514 -1h-1q-13 1 -21.5 10t-8.5 21
l-1 356q0 13 9 22t22 9l514 1q7 0 12.5 -2.5t10 -6.5t7 -10t2.5 -12v-356q0 -13 -9 -22t-22 -9z" />
    <glyph glyph-name="uniE655" unicode="&#xe655;" 
d="M931 326q0 -2 0.5 -7t0.5 -8h-45q-2 73 -31.5 139.5t-78 115t-115 78t-139.5 31.5q-6 0 -11 3.5t-8 8.5t-3 11q0 5 1.5 9t4.5 7t7.5 5t8.5 2q1 0 5 -1q157 -6 271 -113t131 -262q1 -3 2 -5.5t1 -5.5q0 -2 -0.5 -4t-1.5 -4zM429 448q11 0 18.5 -6.5t7.5 -16.5
q0 -6 -3.5 -11.5t-9.5 -8.5t-13 -3h-110v-113q0 -5 -2 -9t-5 -7.5t-7.5 -5t-8.5 -1.5q-10 0 -16.5 6.5t-6.5 16.5v113h-111q-3 0 -6.5 1t-6.5 2.5t-5 3.5t-4 4.5t-2.5 5.5t-0.5 6q0 10 7.5 16.5t17.5 6.5h111v49v18q-26 0 -67.5 0.5t-43.5 0.5q-10 0 -17.5 6.5t-7.5 16
t7.5 16.5t17.5 7h61l-59 76q-7 6 -7 15.5t6.5 16t16 6.5t16.5 -6l84 -108h26l88 107q4 5 10 6t11.5 0t10.5 -6q6 -6 6 -15t-6 -15l-63 -77h66q11 0 18.5 -7t7.5 -16q0 -2 -1 -4v-4q-1 -2 -2 -3.5t-2.5 -3t-3.5 -3t-4 -2.5t-4 -1l-4 -2h-5h-19h-44h-48l1 -8v-60h110zM137 289
q5 -148 108.5 -253t251.5 -111h4v-45h-5q-3 0 -5.5 0.5t-4.5 0.5q-4 -2 -8 -2l-11 3q-155 17 -262 131t-113 271q-1 4 -1 5q0 9 6.5 15.5t16 6.5t16.5 -6.5t7 -15.5zM546 220.5q0 45.5 38 77.5t99 35v21q0 11 6.5 18.5t16 7.5t16 -7.5t6.5 -18.5v-23q45 -7 74 -31.5
t37 -59.5q1 -2 2 -5t1 -6q0 -5 -1.5 -9t-4 -7t-6 -5.5t-7.5 -4t-9 -1.5q-11 0 -20 8t-9 19v0q-7 37 -57 49v-127q61 -6 99 -37.5t38 -75t-38 -75t-99 -37.5v-21q0 -11 -6.5 -18.5t-16.5 -7.5q-4 0 -8.5 2t-7.5 5.5t-4.5 8t-1.5 10.5v21q-54 5 -89.5 30t-43.5 62l-4 12
q0 7 4 13t11 9.5t15 3.5q3 0 6.5 -0.5t6.5 -2t5.5 -3t4.5 -4t3.5 -5t2.5 -5.5t1 -6h1q2 -10 8 -18.5t15.5 -15t23 -11t29.5 -6.5v128q-61 4 -99 36t-38 77.5zM683 281q-37 -3 -59 -20t-22 -41t22 -41t59 -19v121zM728 -22q35 5 56 21.5t21 38.5q0 15 -9 27.5t-26.5 21
t-41.5 11.5v-120z" />
    <glyph glyph-name="uniE656" unicode="&#xe656;" 
d="M601 236q-3 1 -7.5 2t-6.5 2q-12 8 -35 60q-3 1 -10.5 2t-11.5 2q0 9 3 15.5t6.5 10t7 9.5t5.5 12q2 7 3.5 27.5t5.5 28.5q2 3 4 5t4 3.5t4.5 3t5 2.5t4.5 3l4 4q2 5 4.5 11t4 12t2.5 12q8 44 -2 66q-2 3 -3.5 6.5t-2.5 5.5t-2 5.5t-2 8.5q-1 10 2 45t3 36q1 7 0.5 15.5
t-0.5 11t-1.5 10t-2 11t-3.5 14.5q-8 27 -21 35l-27 4l-16 16q-23 15 -48 20t-50 0t-39.5 -9.5t-34.5 -13.5q-97 -33 -65 -193q3 -12 -3.5 -24.5t-5.5 -16.5q0 -3 0.5 -14t1.5 -18.5t2.5 -19t4 -19.5t6.5 -15t9 -11q1 0 5.5 -1.5t8.5 -1.5l3 -1q1 -2 2 -13t1 -15.5t1 -13
t1.5 -15.5t1.5 -14q2 -6 11 -16.5t11 -22.5l-17 -5q-23 -52 -35 -60q-3 -1 -15.5 -4.5t-19.5 -5.5q-14 -6 -32 -14t-32 -14.5t-32.5 -15t-31.5 -14.5l-28 -10q-20 -8 -30 -12.5t-22 -15.5t-16 -26q0 -9 -1.5 -59.5t-0.5 -71.5h359l26 218l-22 49l51 26l42 -25l-23 -50
l41 -218h126q-57 63 -57 151q0 19 3 38t9 36.5t15 33.5zM789 321q-74 0 -127.5 -55t-53.5 -133.5t53.5 -134t128.5 -55.5q74 0 127.5 55.5t53.5 133.5q0 51 -24.5 95t-66 69t-91.5 25zM815 144h28q4 0 4 -4v-18h-48v-28h48v-22h-48v-1v-3v-34q0 -4 -4 -4q-9 1 -18 0
q-4 0 -4 4v34v4h-50v22h50v28h-51q0 16 1 20l1 1t2 1h34h5q-6 10 -13 23t-13 23.5t-13 23.5t-13 24h2h2h20q5 0 7 -4q10 -21 42 -84q39 76 43 84q1 2 2.5 3t3.5 1h20h2h2q-5 -9 -53 -94h9z" />
    <glyph glyph-name="uniE657" unicode="&#xe657;" 
d="M515 631q38 0 64.5 26.5t26.5 64t-26.5 64t-64 26.5t-64 -26.5t-26.5 -63.5q0 -51 44 -78q22 -13 46 -13zM723 278zM725 282v-1q0 -10 -5 -19t-14 -14t-19 -5q-16 0 -27 11.5t-11 26.5v1v206l-25 1v-650q0 -21 -15 -36t-36 -15t-36 15t-15 36h-1v419h-23v-418
q0 -14 -7 -26t-18.5 -19t-25.5 -7q-22 0 -37 15t-15 37v647h-24v-205v-1v-1q0 -10 -5 -19t-13.5 -14t-19.5 -5q-15 0 -26.5 11t-11.5 27v2v222q0 4 0.5 10.5t6.5 23t17.5 29.5t38 23.5t62.5 11.5h48l42 -69l42 69h50q4 0 12 -0.5t28.5 -5.5t36 -14t30 -29.5t16.5 -48.5v-223
v1zM839 511q8 0 16 2t14.5 6t12 9.5t9.5 12t6 14.5t2 16q0 25 -17.5 42.5t-42.5 17.5t-42.5 -17.5t-17.5 -42.5t17.5 -42.5t42.5 -17.5zM896 492h-33l-27 -46l-28 46h-32q-9 -1 -16 -2l-14 -2v-73h13v-430q0 -7 3 -13.5t7.5 -11t10.5 -7.5t13 -3q15 0 25 10t10 25v278h15
v-279q0 -14 10 -23.5t24 -9.5t24 9.5t10 24.5v431h17v-137v0q0 -11 7.5 -18.5t18 -7.5t17.5 7.5t7 18.5v147q-1 19 -10 32.5t-21 19.5t-23.5 9.5t-19.5 3.5zM185 514q-16 0 -30 8t-22 21.5t-8 30.5q0 25 17.5 42.5t42.5 17.5t42.5 -17.5t17.5 -42.5t-17.5 -42.5t-42.5 -17.5
zM128 494h33l27 -45l28 45h32q17 0 30 -4v-72h-13v-430q0 -15 -10 -25t-24.5 -10t-24.5 10t-10 25l1 277h-16v-278q0 -14 -10 -24t-24 -10q-9 0 -17 4.5t-12.5 12.5t-4.5 17v432h-17v-138v0q0 -10 -7.5 -17.5t-18 -7.5t-17.5 7.5t-7 17.5v148q1 19 10.5 32.5t20 19.5t24 9.5
t18.5 3.5h9z" />
    <glyph glyph-name="uniE658" unicode="&#xe658;" 
d="M768 -212h-512q-24 0 -40.5 16.5t-16.5 40.5v910q0 16 7.5 29t21 20.5t28.5 7.5h512q24 0 40.5 -16.5t16.5 -40.5v-910q0 -24 -16.5 -40.5t-40.5 -16.5zM811 741q0 15 -8 28.5t-21 21t-28 7.5h-484q-8 0 -15 -2t-13.5 -6t-11.5 -9t-9 -11.5t-6 -13.5t-2 -15h598zM811 727
h-598v-768h598v768zM811 -56h-598v-85q0 -23 17 -40t40 -17h484q11 0 21.5 4.5t18.5 12t12.5 18.5t4.5 22v85zM526.5 -169q-17.5 0 -30 12.5t-12.5 30t12.5 30t30 12.5t30 -12.5t12.5 -30t-12.5 -30t-30 -12.5z" />
    <glyph glyph-name="uniE659" unicode="&#xe659;" 
d="M1017 627q0 2 -1 4.5t-2.5 4.5t-2.5 4t-2.5 4t-3.5 4l-4 4q-17 15 -43 15h-381h-2h-9h-10h-480q-15 0 -29 -3.5t-25 -15.5q-8 -9 -12 -20t-4 -24v-259v-272q0 -16 4 -30t16 -25q17 -15 44 -15h494h2h10h12h1h361q17 0 30.5 3.5t25.5 16.5q8 9 11.5 20t3.5 24v239v291
q0 15 -4 30zM958 33h-371h-2h-514h-2h-2h-2q-12 0 -20.5 8.5t-8.5 20.5v5v6v5v6v6h1h2h181h156h181h1h14h12h2h405v-8v-9v-8q0 -10 -4 -17.5t-11 -11t-18 -3.5zM991 209v-6h-2h-4h-398h-1h-4h-4h-4h-8h-9h-1h-193h-83h-79h-84h-81v2v4v395q0 33 33 33h488h2h20h71h84h71h83
h70q33 0 33 -33v-395zM487 430h-335h-1h-1q-3 0 -4.5 -1.5t-1.5 -5.5v-24q0 -5 1.5 -6.5t6.5 -1.5h167h168q5 0 6.5 1.5t1.5 6.5v5v6v6v6q0 3 -0.5 5t-2 2.5t-5.5 0.5zM152 467h131h134q7 0 7 7v25q0 4 -1.5 5.5t-5.5 1.5h-266q-4 0 -5.5 -1.5t-1.5 -5.5v-24q0 -5 1.5 -6.5
t6.5 -1.5zM319 346q0 5 -1 6.5t-7 1.5h-24h-31h-24h-20h-21h-19h-21q-4 0 -5.5 -1.5t-1.5 -6.5v-4v-4v-4v-4v-4v-5q0 -3 1.5 -4.5t4.5 -1.5h163q6 0 6 6v13v12z" />
    <glyph glyph-name="uniE65A" unicode="&#xe65a;" horiz-adv-x="1046" 
d="M523 -212q-4 0 -7.5 1t-7 2.5t-6.5 4.5l-154 131q-7 6 -9.5 14t-1 16.5t6.5 14.5q9 10 22 11.5t23 -7.5l132 -113l98 96q10 9 22 9h302q11 0 20 5.5t14 14.5t5 20v701q0 8 -3 15t-8.5 12.5t-12.5 8.5t-15 3h-841q-16 0 -27.5 -11.5t-11.5 -27.5v-701q0 -17 11.5 -28.5
t27.5 -11.5h171q13 0 22 -9t9 -23q0 -5 -1.5 -10t-4.5 -8.5t-6.5 -6.5t-8.5 -5t-10 -2h-171q-42 0 -72 30.5t-30 73.5v701q0 42 30 72.5t72 30.5h841q42 0 72 -30.5t30 -72.5v-701q0 -28 -13.5 -52t-37 -38t-51.5 -14h-289l-109 -107q-9 -9 -22 -9zM215 365q0 -27 18.5 -46
t45.5 -19q13 0 25 5t20.5 14t13.5 21t5 25q0 18 -8.5 32.5t-23.5 23.5t-32 9q-13 0 -25 -5.5t-20.5 -14t-13.5 -20.5t-5 -25zM465 365q0 -18 8.5 -32.5t23.5 -23.5t32 -9q27 0 46 19t19 46q0 7 -1.5 13t-4 12t-6 11t-8 9.5t-9.5 8t-10.5 6t-12 4t-13.5 1.5q-17 0 -32 -9
t-23.5 -23.5t-8.5 -32.5zM709 365q0 -7 1 -13.5t3.5 -12t6 -11t8 -9.5t9.5 -7.5t11 -6t12 -4t13 -1.5q27 0 45.5 19t18.5 46q0 7 -1 13t-3.5 12t-6 11t-8 9.5t-9.5 8t-11 6t-12 4t-13 1.5q-27 0 -45.5 -19t-18.5 -46z" />
    <glyph glyph-name="uniE65B" unicode="&#xe65b;" 
d="M512 748q-61 0 -119 -16t-107 -45t-90 -70.5t-70 -90.5t-45 -107t-16 -119q0 -91 35.5 -174t95 -143t142.5 -95.5t174 -35.5t174 35.5t143 95.5t95.5 143t35.5 174q0 52 -11.5 102.5t-34 94.5t-53 83t-69.5 69.5t-83 52.5t-94 34t-103 12zM403 505l2 26q2 11 9 19
q3 4 7 7t10 4q12 4 29 4l40 -1q51 0 118 4t115 9q2 1 5 1h6q7 1 14 1q15 -1 23 -9q4 -4 6 -10.5t2 -14.5q0 -16 -8.5 -25t-25.5 -13q-9 -2 -34.5 -3.5t-68.5 -3.5q-29 -1 -56.5 -2t-54.5 -1.5t-54 -0.5q-6 0 -9.5 -3t-3.5 -15v-11q0 -9 10 -9h202q45 0 63 -10q6 -3 10.5 -8
t6.5 -11t2 -14q0 -25 -25 -78q-6 -13 -12 -24.5t-11 -21.5q-11 -20 -22 -32q-1 -3 1 -6q56 -44 74 -63q6 -6 10 -11.5t6 -11.5t2 -11t-2 -10t-5 -9t-8 -8q-4 -3 -7.5 -5t-6.5 -4q-6 -3 -12 -3l-6 2q-3 1 -6.5 3t-7.5 5t-9 7q-22 19 -36.5 32t-20.5 18l-15 11q-6 3 -12 0
q-29 -26 -64 -48q-36 -24 -49 -28q-13 -5 -24 -5q-21 0 -30 13t-9 23q0 5 1.5 9.5t4.5 7.5q6 6 32 18t55 34q30 20 30 25q0 1 -1 2t-23 16q-22 16 -43 28q-5 3 -8.5 6t-6 6.5t-4 7t-1.5 7.5q0 10 12 23q12 14 26 14t39.5 -15t59.5 -39l2 -2q1 0 4 4q1 1 3 3.5t5 6.5
q5 8 12 19q9 15 15 30.5t6 19.5q0 5 -3 7q-1 0 -4 0.5t-7 0.5h-185q-9 0 -9 -9q-2 -86 -15 -150q-11 -62 -23 -80q-12 -16 -26 -16q-4 0 -8 1t-8.5 2.5t-8.5 3.5q-12 8 -12 19q0 12 10 51q22 84 22 237v27v15q0 7 -1 15zM232 563q11 14 23 14q4 0 8 -0.5t8 -1.5t7 -3
q4 -1 8.5 -3.5t10.5 -5.5q12 -7 31 -19q38 -23 45 -33q4 -5 6 -10.5t2 -11.5t-3 -12.5t-9 -13.5q-6 -6 -12 -9.5t-13 -3.5q-2 0 -3.5 0.5t-3.5 0.5t-3.5 1t-3.5 1.5t-3.5 1.5t-3.5 3q-13 8 -24 16t-21 14q-20 13 -35 21q-3 1 -5.5 3t-4.5 3.5t-3.5 3.5t-3 4.5t-2.5 4.5t-1 4
v5q0 13 9 26zM802 39q-7 -8 -18 -10q-5 0 -22 -1q-19 -1 -47 -1q-59 -2 -133 -2h-24q-11 0 -22 0.5t-20.5 0.5t-18.5 0.5t-17.5 1t-15.5 0.5q-23 2 -39.5 5t-28.5 9q-23 9 -55 42q-11 11 -21.5 11t-16.5 -13q-8 -18 -14.5 -30t-11.5 -19q-12 -14 -22 -14q-5 0 -12 2t-16 6
q-18 9 -18 29q0 26 28 55q30 30 45 38q4 4 4 8v148q0 12 -9 12h-28q-17 0 -27 10q-5 5 -7.5 11.5t-2.5 15.5q0 16 10 26q5 5 11.5 7.5t15.5 2.5h68q7 0 13 -1t10 -2q9 -4 13.5 -12t5.5 -21q1 -4 1 -9t0.5 -11t0.5 -12v-167q0 -6 3 -8q1 -1 2.5 -2t3.5 -3q4 -3 10 -9l6 -7
l6 -4q6 -4 11 -7q9 -6 27 -10t48 -6q15 -1 35 -2t46 -1q13 0 26 0.5t27 0.5t28.5 0.5t29.5 0.5l101 3q21 0 30 -9.5t9 -26.5q0 -8 -2 -14.5t-6 -11.5z" />
    <glyph glyph-name="uniE65C" unicode="&#xe65c;" 
d="M738 531h-1v1q-7 6 -16 6h-1h-1h-1h-37l25 41q6 8 3.5 17.5t-11 14.5t-18.5 2t-16 -12l-34 -56l-3 -7h-13l-3 7l-35 56q-5 9 -15 12t-18.5 -2t-11 -14.5t3.5 -17.5l25 -41h-49h-1h-1q-9 0 -16 -6l-1 -1q-2 -2 -3 -3.5t-2 -3.5t-1.5 -4t-0.5 -4v-1v-1v-127v-1v-1v-1v-1
q0 -9 7.5 -15.5t18.5 -6.5h207q5 0 9 1t7 3t5.5 5t4 6t1.5 7v1v1v2v127v1v1q0 4 -2 8t-5 7zM591 405h-58v49q0 -10 7.5 -16.5t17.5 -6.5q7 0 12.5 3t9 8.5t3.5 11.5t-3.5 11.5t-9 8.5t-12.5 3q-10 0 -17.5 -6.5t-7.5 -16.5v40h58v-89zM697 405h-58v89h58v-89zM721 314
q0 9 -8 15.5t-19 6.5l-158 1q-7 0 -12.5 -2.5t-9 -6.5t-4.5 -10q-2 -2 -2.5 -5t-0.5 -6v-127v-4v-3q0 -6 3.5 -11t9.5 -8t13 -3l158 -1q21 0 26 17l4 13v127l-1 5q1 1 1 2zM672 195h-117v32h117v-32zM672 272h-117v20l117 -1v-19zM668 431q5 0 9.5 2t8 5t5.5 7t2 9t-2 9
t-5.5 7t-8 5t-9.5 2q-7 0 -12.5 -3t-9 -8.5t-3.5 -11.5q0 -18 19 -22q3 -1 6 -1zM311 270q4 0 7.5 1.5t6.5 4.5t4.5 6.5t1.5 7.5v256h83v-256q0 -5 2.5 -9.5t7 -7.5t10.5 -3q4 0 7.5 1.5t6.5 4.5t4.5 6.5t1.5 7.5v273v1q-1 0 -1 0.5t1 1.5q0 9 -6 14.5t-14 5.5h-123
q-5 0 -10 -2.5t-7.5 -7t-2.5 -10.5v-1v-1v-1v-273q0 -3 1 -6t3 -5.5t4.5 -4.5t5.5 -3t6 -1zM388 296q-1 1 -1.5 1t-0.5 1q2 9 3.5 18.5t2 13t0.5 6.5v172q0 8 -5.5 14t-14.5 6q-5 0 -9.5 -3t-7.5 -7.5t-3 -9.5v-171v-3q0 -3 -1.5 -10t-3 -14.5t-4.5 -18t-7 -20.5t-9.5 -21.5
t-12 -21.5t-15.5 -19.5t-19 -17.5q-7 -4 -8.5 -12.5t3.5 -14.5q6 -9 16 -9q7 0 12 4q44 32 69 94l78 -91q6 -7 15 -7q7 0 13 5t6.5 13.5t-4.5 14.5zM511 816q-88 0 -168.5 -34.5t-138.5 -92.5t-92.5 -138.5t-34.5 -168.5t34.5 -168.5t92.5 -138.5t138.5 -92.5t168.5 -34.5
t168.5 34.5t138.5 92.5t92.5 138.5t34.5 168.5q0 39 -7 77.5t-20 73.5t-32 68t-43 61t-52 52t-61 43t-68 32t-73.5 20t-77.5 7zM511 4q-102 0 -189.5 50.5t-138 137.5t-50.5 190q0 77 30 147t80.5 120.5t120.5 80.5t147 30q102 0 189.5 -50.5t138 -138t50.5 -189.5
q0 -149 -102 -258q-101 -108 -247 -119q-15 -1 -29 -1z" />
    <glyph glyph-name="uniE65D" unicode="&#xe65d;" 
d="M398 143l256 128q18 9 18 29t-18 29l-256 128q-16 8 -31 -1.5t-15 -27.5v-256q0 -18 15 -27.5t31 -1.5zM928 684h-832q-20 0 -37.5 -7.5t-30.5 -20.5t-20.5 -31t-7.5 -37v-575q0 -20 7.5 -38t20.5 -31t30.5 -20.5t37.5 -7.5h832q40 0 68 28.5t28 68.5v575q0 15 -5 30
t-13.5 26.5t-20.5 20.5t-26.5 14t-30.5 5zM192 12q0 -13 -9 -22.5t-23 -9.5h-64q-13 0 -22.5 9t-9.5 23v64q0 13 9 22.5t23 9.5h64q13 0 22.5 -9t9.5 -23v-64zM192 268q0 -9 -4 -16t-11.5 -11.5t-16.5 -4.5h-64q-13 0 -22.5 9t-9.5 23v64q0 13 9 22.5t23 9.5h64q6 0 12 -2.5
t10.5 -6.5t7 -10t2.5 -13v-64zM192 524q0 -13 -9 -22.5t-23 -9.5h-64q-13 0 -22.5 9t-9.5 23v64q0 9 4 16t11.5 11.5t16.5 4.5h64q13 0 22.5 -9t9.5 -23v-64zM768 -20h-512v640h512v-640zM960 12q0 -13 -9 -22.5t-23 -9.5h-64q-13 0 -22.5 9t-9.5 23v64q0 13 9 22.5t23 9.5
h64q13 0 22.5 -9t9.5 -23v-64zM960 268q0 -13 -9 -22.5t-23 -9.5h-64q-13 0 -22.5 9t-9.5 23v64q0 13 9 22.5t23 9.5h64q9 0 16 -4t11.5 -11.5t4.5 -16.5v-64zM960 524q0 -13 -9 -22.5t-23 -9.5h-64q-13 0 -22.5 9t-9.5 23v64q0 13 9 22.5t23 9.5h64q9 0 16 -4t11.5 -11.5
t4.5 -16.5v-64z" />
    <glyph glyph-name="uniE65E" unicode="&#xe65e;" 
d="M169 -14h2q93 0 170 85q78 -86 171 -86t170 86q14 -14 28 -26.5t31 -23.5t34.5 -18.5t37.5 -12t40 -4.5h2l103 278q5 14 -2 34q-6 13 -26 21l-76 25v196q0 35 -25.5 60.5t-60.5 25.5h-128l-32 106h-192l-32 -106h-128q-35 0 -60.5 -25.5t-25.5 -60.5v-196l-76 -25
q-3 -1 -6 -3l-4 -2q-3 -2 -5 -3.5t-4 -3.5t-4 -4.5t-3 -5.5q-7 -18 -2 -33zM256 540h512v-169l-256 84l-256 -84v169zM682 -4q-78 -54 -170 -54t-171 54q-2 -3 -6.5 -7.5t-18.5 -17.5t-28 -25.5t-34.5 -27t-40 -25t-42.5 -18t-43 -7.5h43q72 0 170 51q80 -41 170.5 -41
t170.5 41q46 -24 88 -37.5t83 -13.5h43q-27 0 -59 13t-58 32t-48.5 38t-35.5 32z" />
    <glyph glyph-name="uniE65F" unicode="&#xe65f;" 
d="M903 289q83 123 92 237q-55 -62 -104 -105q-44 -41 -133 -36q-103 -2 -183 74q26 9 30 27t-4 43q-7 25 -0.5 60.5t22.5 85.5q-44 -21 -84 -61.5t-84 -100.5q-25 -2 -50 -5t-49.5 -7.5t-49 -10.5t-48.5 -13q-58 -25 -149 -92q-6 -4 -13 -9t-12.5 -8.5t-12.5 -8t-12 -9.5
q-14 -11 -20.5 -16.5t-13 -17t-7.5 -23.5q-1 -21 -1 -31q13 -2 14 -16h-8q15 -65 42 -83q98 -88 232 -106q128 -14 222 39q33 -108 84 -141q0 7 0.5 23t1 24.5t2.5 24t5 26t8.5 25.5t14 28t21 29t28.5 32q29 21 43 40t8 45q62 1 272 -203q-38 133 -104 240zM107 285
q-8 0 -13.5 7t-5.5 16.5t5.5 16.5t14 7t14 -7t5.5 -16q0 -7 -2.5 -12t-7 -8.5t-10.5 -3.5z" />
    <glyph glyph-name="uniE660" unicode="&#xe660;" 
d="M1022 66h-65l-75 386q0 33 -29 60.5t-68 27.5h-61v68h150v192h-429v-192h151v-68h-90h-274q-40 0 -69 -27.5t-29 -60.5l-75 -386h-59v-258h1024zM727 433h62v-64h-62v64zM727 304h61v-64h-61v64zM727 176h60v-64h-60v64zM533 650v106h254v-106h-254zM598 240v64h62v-64
h-62zM660 176v-64h-62v64h62zM598 369v64h62v-64h-62zM191 433h321v-150h-322zM957 -105h-894v107h894v-107z" />
    <glyph glyph-name="uniE661" unicode="&#xe661;" 
d="M126 667h275q13 0 21.5 -9t8.5 -21v-166q0 -10 -6.5 -18.5t-16.5 -10.5l57 -41v-26h-400v26l53 42q-4 1 -7 3t-6 4.5t-5 6t-3 7t-1 7.5v166q0 30 30 30zM528 212l-73 -80v-68l73 80v68zM296 357v-115h-47v115h47zM455 567v-68l112 -123v69zM620 499h276q8 0 15 -4
t11 -10.5t4 -14.5v-166q0 -11 -7 -19t-17 -10l57 -42v-26h-400v26l53 42q-9 3 -15 11t-6 18v166q0 12 8.5 20.5t20.5 8.5zM737 254l-13 -24h70l-15 24h-42zM633 454v-141h250v141h-250zM126 223h275q5 0 9.5 -1.5t8 -4t6.5 -6.5t4.5 -8.5t1.5 -9.5v-165q0 -11 -6.5 -19
t-16.5 -10l57 -42v-26h-400v26l53 42q-10 3 -16 11t-6 18v165q0 8 4 15t11 11t15 4zM242 -22l-12 -25h70l-15 25h-43zM138 178v-141h251v141h-251zM242 422l-12 -25h70l-15 25h-43zM138 622v-142h251v142h-251z" />
    <glyph glyph-name="uniE662" unicode="&#xe662;" 
d="M941 529l-114 117q-21 21 -50 21t-49 -21l-389 -388l-33 -247l246 31l389 388q9 10 14.5 23t5.5 27t-5 26.5t-15 22.5zM365 73l12 92l81 -81zM898 473l-371 -371l-129 130l372 372q3 3 7 3t7 -3l114 -117q3 -3 3 -7t-3 -7zM853 114q0 3 -1.5 6.5t-4 6t-6 5t-7.5 3.5t-9 1
q-11 0 -19 -6.5t-8 -15.5v-1v-157q0 -8 -10 -8h-617q-10 0 -10 8v650q0 8 10 8h200h1q9 0 15.5 8t6.5 19.5t-6.5 19.5t-15.5 8h-1h-200q-27 0 -46 -18.5t-19 -44.5v-650q0 -26 19 -44.5t46 -18.5h617q27 0 46 18.5t19 44.5v157v1z" />
    <glyph glyph-name="uniE663" unicode="&#xe663;" horiz-adv-x="1473" 
d="M1040 301q7 12 11 24.5t6 22.5q1 10 1.5 20.5t-1.5 23.5t-6 24t-12 20t-20 13q-1 1 -2 1t-3 0.5t-4 0.5q-17 0 -45 -9t-60 -25t-62 -35l3 -81h194zM199 -116l236 267h-433v-180q0 -88 49.5 -135.5t147.5 -47.5h227l-36 142zM1471 151h-421l236 -267l-191 46l-36 -142h210
q99 0 151.5 50t51.5 138zM683 383q-30 19 -62 35t-59.5 25t-44.5 9l-10 -1q-18 -7 -28.5 -26.5t-10.5 -38.5t1 -36q1 -2 1.5 -5t1.5 -7.5t2.5 -8.5t3 -9t4 -10t5.5 -9h192zM266 301q-12 42 -12.5 82t12 77.5t37 66.5t67 49t97.5 26q138 14 296 -132q167 153 306 132
q47 -7 84 -27.5t59 -50t35 -66.5t12.5 -76.5t-8.5 -80.5h220l-1 288q0 44 -10.5 83t-31.5 70.5t-57.5 49.5t-84.5 18l-1059 2q-39 0 -75 -13t-63 -35t-47.5 -50.5t-31 -62t-10.5 -68.5l1 -282h265zM735 151l-298 -363h611l-298 363h-15z" />
    <glyph glyph-name="uniE664" unicode="&#xe664;" 
d="M209 -43q43 0 83 25t66 65q68 -90 150 -90q29 0 56.5 12t50 31.5t42.5 46.5q67 -90 149 -90l90 291q1 4 1.5 9t0 9t-1 8.5t-0.5 7.5q-4 12 -21 21l-69 30v205q0 25 -10 45.5t-27.5 32t-38.5 11.5h-111l-26 111h-166l-30 -111h-111q-32 0 -54.5 -27t-22.5 -62v-205
l-68 -26q-14 -7 -22 -21q0 -3 -1 -5.5t-1.5 -5t-0.5 -4.5v-5q0 -2 0.5 -4t1.5 -4.5t1 -5.5zM286 538h444v-175l-222 85l-222 -85v175zM661 -43q-74 -57 -151 -55t-152 60q-3 -3 -9 -7.5t-24.5 -17.5t-37.5 -24.5t-44.5 -25.5t-48.5 -24.5t-47.5 -17.5t-44.5 -7h43
q27 0 65.5 7.5t76.5 20.5t63 27q30 -17 63 -28t66 -14.5t66 0t66 14.5t63 28q38 -22 100.5 -38.5t104.5 -16.5h43q-42 -2 -107 28.5t-109.5 60t-44.5 30.5v0z" />
    <glyph glyph-name="uniE665" unicode="&#xe665;" 
d="M752 543h199q8 0 13.5 -7t5.5 -16v-171q0 -9 -5.5 -15.5t-13.5 -6.5h-878q-5 0 -9.5 3t-7 8t-2.5 11v171q0 9 5.5 16t13.5 7h199q-29 45 -29 102q0 70 39 118q40 49 100 49q28 0 53.5 -12.5t45 -35.5t29.5 -54q4 -9 1 -18t-11 -13q-3 -1 -6 -1.5t-6 0.5t-5.5 3t-4.5 4.5
t-3 6.5q-6 16 -16 30t-21.5 23.5t-26 14.5t-29.5 5q-28 0 -51 -15.5t-36 -43t-13 -61.5q0 -25 8.5 -48.5t23.5 -40.5q3 -3 4.5 -6.5t1.5 -6.5h384q1 8 6 13q32 36 32 89q0 25 -7.5 47.5t-21 38.5t-32 25t-39.5 9q-30 0 -55.5 -20t-37.5 -53q-3 -9 -10.5 -12.5t-15 0
t-10.5 12.5t1 18q16 46 51 74t77 28q29 0 54.5 -12.5t45.5 -36.5q39 -48 39 -118q0 -57 -29 -102zM485 381v108h54v-108h-54zM108 381h808v108h-808v-108zM152 -212q-4 0 -11.5 5.5t-14.5 12.5t-12.5 14.5t-5.5 10.5v496h54v-485h700v485h54v-496q0 -7 -18 -25t-26 -18h-720
z" />
    </font>
</defs>
</svg>
